<?xml version="1.0" encoding="UTF-8" standalone="no"?><svg xmlns="http://www.w3.org/2000/svg" xmlns:xlink="http://www.w3.org/1999/xlink" clip-rule="evenodd" stroke-miterlimit="4.00" viewBox="0 0 1024 768"><desc>SVG generated by Keynote</desc><defs></defs><g transform="matrix(1.00, 0.00, -0.00, -1.00, 0.0, 768.0)"><path d="M 0.0 768.0 L 1024.0 768.0 L 1024.0 0.0 L 0.0 0.0 Z M 0.0 768.0 " fill="#000000"></path><image xlink:href="44248C5AFB413113FC6D78D716133004.png" width="1280.00" height="720.00" transform="matrix(1.07, 0.00, -0.00, -1.07, -170.7, 768.7)"></image><image xlink:href="../../0AB9B5CC-DA08-437C-A28F-B52ACA6C796D/assets/B87C37A3ACFDDBA7DECB279FDDBD89E5.png" width="5689.00" height="505.00" transform="matrix(0.24, 0.00, -0.00, -0.24, -170.7, 0.7)"></image><g opacity="0.50"><g><clipPath id="clip-22"><path d="M 0.0 768.0 L 140.0 768.0 L 140.0 0.0 L 0.0 0.0 Z M 0.0 768.0 "></path></clipPath><g clip-path="url(#clip-22)"><g><clipPath id="clip-23"><path d="M 0.0 0.0 L 142.0 0.0 L 142.0 768.0 L 0.0 768.0 Z M 0.0 0.0 "></path></clipPath><g clip-path="url(#clip-23)"><image xlink:href="../../3D0BF889-3BD6-425E-BF92-2C0E7C2FB87C/assets/71EBA73D8AF4BE780FE0EE06D6426920.jpeg" width="1024.00" height="768.00" transform="matrix(1.00, 0.00, -0.00, -1.00, 0.0, 768.0)"></image></g></g></g></g></g></g></svg>