<?xml version="1.0" encoding="UTF-8" standalone="no"?><svg xmlns="http://www.w3.org/2000/svg" xmlns:xlink="http://www.w3.org/1999/xlink" clip-rule="evenodd" stroke-miterlimit="4.00" viewBox="0 0 1024 768"><desc>SVG generated by Keynote</desc><defs></defs><g transform="matrix(1.00, 0.00, -0.00, -1.00, 0.0, 768.0)"><path d="M 0.0 768.0 L 1024.0 768.0 L 1024.0 0.0 L 0.0 0.0 Z M 0.0 768.0 " fill="#000000"></path><g><clipPath id="clip-15"><path d="M 599.0 377.0 L 1019.0 377.0 L 1019.0 70.0 L 599.0 70.0 Z M 599.1 377.0 "></path></clipPath><g clip-path="url(#clip-15)"><image xlink:href="../../7252D11D-7405-4426-B117-7F9951571649/assets/52BAF633E09B945645405248E2BBB92A.png" width="420.00" height="747.00" transform="matrix(1.00, 0.00, -0.00, -1.00, 599.0, 597.0)"></image></g></g><g><clipPath id="clip-16"><path d="M 599.0 718.0 L 1019.0 718.0 L 1019.0 411.0 L 599.0 411.0 Z M 599.1 718.0 "></path></clipPath><g clip-path="url(#clip-16)"><image xlink:href="../../3D0BF889-3BD6-425E-BF92-2C0E7C2FB87C/assets/F20F5589920C44EDBB83EF4C38EB69C9.png" width="475.00" height="307.00" transform="matrix(1.00, 0.00, -0.00, -1.00, 572.0, 718.0)"></image></g></g><g><clipPath id="clip-17"><path d="M 144.0 718.0 L 564.0 718.0 L 564.0 70.0 L 144.0 70.0 Z M 144.1 718.0 "></path></clipPath><g clip-path="url(#clip-17)"><image xlink:href="../../7252D11D-7405-4426-B117-7F9951571649/assets/1F89834A2735DF742AF88310EB1FE8E5.jpeg" width="864.00" height="648.00" transform="matrix(1.00, 0.00, -0.00, -1.00, -78.0, 718.0)"></image></g></g><g><clipPath id="clip-18"><path d="M 0.0 768.0 L 140.0 768.0 L 140.0 0.0 L 0.0 0.0 Z M 0.0 768.0 "></path></clipPath><g clip-path="url(#clip-18)"><image xlink:href="../../3D0BF889-3BD6-425E-BF92-2C0E7C2FB87C/assets/71EBA73D8AF4BE780FE0EE06D6426920.jpeg" width="1024.00" height="768.00" transform="matrix(1.00, 0.00, -0.00, -1.00, 0.0, 768.0)"></image></g></g></g></svg>