<?xml version="1.0" encoding="UTF-8" standalone="no"?><svg xmlns="http://www.w3.org/2000/svg" xmlns:xlink="http://www.w3.org/1999/xlink" clip-rule="evenodd" stroke-miterlimit="4.00" viewBox="0 0 227 29"><desc>SVG generated by Keynote</desc><defs></defs><g transform="matrix(1.00, 0.00, -0.00, -1.00, 0.0, 29.0)"><text xml:space="preserve" font-family="Aller" font-size="24.0" fill="#FEFFFF" transform="matrix(1.00, 0.00, -0.00, -1.00, 1.0, 8.0)">(</text><text xml:space="preserve" font-family="Aller" font-size="24.0" fill="#A7D3A9" transform="matrix(1.00, 0.00, -0.00, -1.00, 8.7, 8.0)">p</text><text xml:space="preserve" font-family="Aller" font-size="24.0" fill="#A7D3A9" transform="matrix(1.00, 0.00, -0.00, -1.00, 22.8, 8.0)">h</text><text xml:space="preserve" font-family="Aller" font-size="24.0" fill="#A7D3A9" transform="matrix(1.00, 0.00, -0.00, -1.00, 36.7, 8.0)">y</text><text xml:space="preserve" font-family="Aller" font-size="24.0" fill="#A7D3A9" transform="matrix(1.00, 0.00, -0.00, -1.00, 49.4, 8.0)">s</text><text xml:space="preserve" font-family="Aller" font-size="24.0" fill="#A7D3A9" transform="matrix(1.00, 0.00, -0.00, -1.00, 60.3, 8.0)">i</text><text xml:space="preserve" font-family="Aller" font-size="24.0" fill="#A7D3A9" transform="matrix(1.00, 0.00, -0.00, -1.00, 67.2, 8.0)">c</text><text xml:space="preserve" font-family="Aller" font-size="24.0" fill="#A7D3A9" transform="matrix(1.00, 0.00, -0.00, -1.00, 78.7, 8.0)">a</text><text xml:space="preserve" font-family="Aller" font-size="24.0" fill="#A7D3A9" transform="matrix(1.00, 0.00, -0.00, -1.00, 91.1, 8.0)">l</text><text xml:space="preserve" font-family="Aller" font-size="24.0" fill="#A7D3A9" transform="matrix(1.00, 0.00, -0.00, -1.00, 98.2, 8.0)"> </text><text xml:space="preserve" font-family="Aller" font-size="24.0" fill="#A7D3A9" transform="matrix(1.00, 0.00, -0.00, -1.00, 103.9, 8.0)">c</text><text xml:space="preserve" font-family="Aller" font-size="24.0" fill="#A7D3A9" transform="matrix(1.00, 0.00, -0.00, -1.00, 115.0, 8.0)">o</text><text xml:space="preserve" font-family="Aller" font-size="24.0" fill="#A7D3A9" transform="matrix(1.00, 0.00, -0.00, -1.00, 128.9, 8.0)">n</text><text xml:space="preserve" font-family="Aller" font-size="24.0" fill="#A7D3A9" transform="matrix(1.00, 0.00, -0.00, -1.00, 142.8, 8.0)">d</text><text xml:space="preserve" font-family="Aller" font-size="24.0" fill="#A7D3A9" transform="matrix(1.00, 0.00, -0.00, -1.00, 156.8, 8.0)">i</text><text xml:space="preserve" font-family="Aller" font-size="24.0" fill="#A7D3A9" transform="matrix(1.00, 0.00, -0.00, -1.00, 163.7, 8.0)">t</text><text xml:space="preserve" font-family="Aller" font-size="24.0" fill="#A7D3A9" transform="matrix(1.00, 0.00, -0.00, -1.00, 172.3, 8.0)">i</text><text xml:space="preserve" font-family="Aller" font-size="24.0" fill="#A7D3A9" transform="matrix(1.00, 0.00, -0.00, -1.00, 179.2, 8.0)">o</text><text xml:space="preserve" font-family="Aller" font-size="24.0" fill="#A7D3A9" transform="matrix(1.00, 0.00, -0.00, -1.00, 193.1, 8.0)">n</text><text xml:space="preserve" font-family="Aller" font-size="24.0" fill="#A7D3A9" transform="matrix(1.00, 0.00, -0.00, -1.00, 207.0, 8.0)">s</text><text xml:space="preserve" font-family="Aller" font-size="24.0" fill="#FEFFFF" transform="matrix(1.00, 0.00, -0.00, -1.00, 217.9, 8.0)">)</text></g></svg>