<?xml version="1.0" encoding="UTF-8" standalone="no"?><svg xmlns="http://www.w3.org/2000/svg" xmlns:xlink="http://www.w3.org/1999/xlink" clip-rule="evenodd" stroke-miterlimit="4.00" viewBox="0 0 255 27"><desc>SVG generated by Keynote</desc><defs></defs><g transform="matrix(1.00, 0.00, -0.00, -1.00, 0.0, 27.0)"><text xml:space="preserve" font-family="Aller" font-size="24.0" fill="#FEFFFF" transform="matrix(1.00, 0.00, -0.00, -1.00, 1.0, 7.0)">(</text><text xml:space="preserve" font-family="Aller" font-size="24.0" fill="#FEFFFF" transform="matrix(1.00, 0.00, -0.00, -1.00, 8.7, 7.0)">s</text><text xml:space="preserve" font-family="Aller" font-size="24.0" fill="#FEFFFF" transform="matrix(1.00, 0.00, -0.00, -1.00, 19.6, 7.0)">t</text><text xml:space="preserve" font-family="Aller" font-size="24.0" fill="#FEFFFF" transform="matrix(1.00, 0.00, -0.00, -1.00, 28.2, 7.0)">a</text><text xml:space="preserve" font-family="Aller" font-size="24.0" fill="#FEFFFF" transform="matrix(1.00, 0.00, -0.00, -1.00, 40.6, 7.0)">ﬀ</text><text xml:space="preserve" font-family="Aller" font-size="24.0" fill="#FEFFFF" transform="matrix(1.00, 0.00, -0.00, -1.00, 57.0, 7.0)"> </text><text xml:space="preserve" font-family="Aller" font-size="24.0" fill="#FEFFFF" transform="matrix(1.00, 0.00, -0.00, -1.00, 62.7, 7.0)">t</text><text xml:space="preserve" font-family="Aller" font-size="24.0" fill="#FEFFFF" transform="matrix(1.00, 0.00, -0.00, -1.00, 71.3, 7.0)">i</text><text xml:space="preserve" font-family="Aller" font-size="24.0" fill="#FEFFFF" transform="matrix(1.00, 0.00, -0.00, -1.00, 78.2, 7.0)">m</text><text xml:space="preserve" font-family="Aller" font-size="24.0" fill="#FEFFFF" transform="matrix(1.00, 0.00, -0.00, -1.00, 98.7, 7.0)">e</text><text xml:space="preserve" font-family="Aller" font-size="24.0" fill="#FEFFFF" transform="matrix(1.00, 0.00, -0.00, -1.00, 112.0, 7.0)"> </text><text xml:space="preserve" font-family="Aller" font-size="24.0" fill="#FEFFFF" transform="matrix(1.00, 0.00, -0.00, -1.00, 117.7, 7.0)">&amp;</text><text xml:space="preserve" font-family="Aller" font-size="24.0" fill="#FEFFFF" transform="matrix(1.00, 0.00, -0.00, -1.00, 136.0, 7.0)"> </text><text xml:space="preserve" font-family="Aller" font-size="24.0" fill="#FEFFFF" transform="matrix(1.00, 0.00, -0.00, -1.00, 141.7, 7.0)">r</text><text xml:space="preserve" font-family="Aller" font-size="24.0" fill="#FEFFFF" transform="matrix(1.00, 0.00, -0.00, -1.00, 150.3, 7.0)">e</text><text xml:space="preserve" font-family="Aller" font-size="24.0" fill="#FEFFFF" transform="matrix(1.00, 0.00, -0.00, -1.00, 163.6, 7.0)">s</text><text xml:space="preserve" font-family="Aller" font-size="24.0" fill="#FEFFFF" transform="matrix(1.00, 0.00, -0.00, -1.00, 174.5, 7.0)">o</text><text xml:space="preserve" font-family="Aller" font-size="24.0" fill="#FEFFFF" transform="matrix(1.00, 0.00, -0.00, -1.00, 188.4, 7.0)">u</text><text xml:space="preserve" font-family="Aller" font-size="24.0" fill="#FEFFFF" transform="matrix(1.00, 0.00, -0.00, -1.00, 202.1, 7.0)">r</text><text xml:space="preserve" font-family="Aller" font-size="24.0" fill="#FEFFFF" transform="matrix(1.00, 0.00, -0.00, -1.00, 210.7, 7.0)">c</text><text xml:space="preserve" font-family="Aller" font-size="24.0" fill="#FEFFFF" transform="matrix(1.00, 0.00, -0.00, -1.00, 221.8, 7.0)">e</text><text xml:space="preserve" font-family="Aller" font-size="24.0" fill="#FEFFFF" transform="matrix(1.00, 0.00, -0.00, -1.00, 235.2, 7.0)">s</text><text xml:space="preserve" font-family="Aller" font-size="24.0" fill="#FEFFFF" transform="matrix(1.00, 0.00, -0.00, -1.00, 246.1, 7.0)">)</text></g></svg>