<?xml version="1.0" encoding="UTF-8" standalone="no"?><svg xmlns="http://www.w3.org/2000/svg" xmlns:xlink="http://www.w3.org/1999/xlink" clip-rule="evenodd" stroke-miterlimit="4.00" viewBox="0 0 772 64"><desc>SVG generated by Keynote</desc><defs></defs><g transform="matrix(1.00, 0.00, -0.00, -1.00, 0.0, 64.0)"><text xml:space="preserve" font-family="Aller-Bold" font-weight="bold" font-size="80.0" fill="#A2CCA0" transform="matrix(1.00, 0.00, -0.00, -1.00, 0.0, 3.0)">S</text><text xml:space="preserve" font-family="Aller-Bold" font-weight="bold" font-size="80.0" fill="#A2CCA0" transform="matrix(1.00, 0.00, -0.00, -1.00, 44.0, 3.0)">o</text><text xml:space="preserve" font-family="Aller-Bold" font-weight="bold" font-size="80.0" fill="#A2CCA0" transform="matrix(1.00, 0.00, -0.00, -1.00, 90.4, 3.0)">f</text><text xml:space="preserve" font-family="Aller-Bold" font-weight="bold" font-size="80.0" fill="#A2CCA0" transform="matrix(1.00, 0.00, -0.00, -1.00, 122.1, 3.0)">t</text><text xml:space="preserve" font-family="Aller-Bold" font-weight="bold" font-size="80.0" fill="#A2CCA0" transform="matrix(1.00, 0.00, -0.00, -1.00, 152.7, 3.0)">w</text><text xml:space="preserve" font-family="Aller-Bold" font-weight="bold" font-size="80.0" fill="#A2CCA0" transform="matrix(1.00, 0.00, -0.00, -1.00, 217.2, 3.0)">a</text><text xml:space="preserve" font-family="Aller-Bold" font-weight="bold" font-size="80.0" fill="#A2CCA0" transform="matrix(1.00, 0.00, -0.00, -1.00, 259.0, 3.0)">r</text><text xml:space="preserve" font-family="Aller-Bold" font-weight="bold" font-size="80.0" fill="#A2CCA0" transform="matrix(1.00, 0.00, -0.00, -1.00, 289.9, 3.0)">e</text><text xml:space="preserve" font-family="Aller-Bold" font-weight="bold" font-size="80.0" fill="#000000" transform="matrix(1.00, 0.00, -0.00, -1.00, 334.9, 3.0)"> </text><text xml:space="preserve" font-family="Aller-Bold" font-weight="bold" font-size="80.0" fill="#000000" transform="matrix(1.00, 0.00, -0.00, -1.00, 352.5, 3.0)">&gt;</text><text xml:space="preserve" font-family="Aller-Bold" font-weight="bold" font-size="80.0" fill="#000000" transform="matrix(1.00, 0.00, -0.00, -1.00, 400.5, 3.0)"> </text><text xml:space="preserve" font-family="Aller-Bold" font-weight="bold" font-size="80.0" fill="#000000" transform="matrix(1.00, 0.00, -0.00, -1.00, 418.1, 3.0)">H</text><text xml:space="preserve" font-family="Aller-Bold" font-weight="bold" font-size="80.0" fill="#000000" transform="matrix(1.00, 0.00, -0.00, -1.00, 472.1, 3.0)">a</text><text xml:space="preserve" font-family="Aller-Bold" font-weight="bold" font-size="80.0" fill="#000000" transform="matrix(1.00, 0.00, -0.00, -1.00, 513.8, 3.0)">r</text><text xml:space="preserve" font-family="Aller-Bold" font-weight="bold" font-size="80.0" fill="#000000" transform="matrix(1.00, 0.00, -0.00, -1.00, 544.8, 3.0)">d</text><text xml:space="preserve" font-family="Aller-Bold" font-weight="bold" font-size="80.0" fill="#000000" transform="matrix(1.00, 0.00, -0.00, -1.00, 591.8, 3.0)">w</text><text xml:space="preserve" font-family="Aller-Bold" font-weight="bold" font-size="80.0" fill="#000000" transform="matrix(1.00, 0.00, -0.00, -1.00, 656.3, 3.0)">a</text><text xml:space="preserve" font-family="Aller-Bold" font-weight="bold" font-size="80.0" fill="#000000" transform="matrix(1.00, 0.00, -0.00, -1.00, 698.1, 3.0)">r</text><text xml:space="preserve" font-family="Aller-Bold" font-weight="bold" font-size="80.0" fill="#000000" transform="matrix(1.00, 0.00, -0.00, -1.00, 729.0, 3.0)">e</text></g></svg>