<?xml version="1.0" encoding="UTF-8" standalone="no"?><svg xmlns="http://www.w3.org/2000/svg" xmlns:xlink="http://www.w3.org/1999/xlink" clip-rule="evenodd" stroke-miterlimit="4.00" viewBox="0 0 715 82"><desc>SVG generated by Keynote</desc><defs></defs><g transform="matrix(1.00, 0.00, -0.00, -1.00, 0.0, 82.0)"><text xml:space="preserve" font-family="Aller-Bold" font-weight="bold" font-size="80.0" fill="#A0CCA2" transform="matrix(1.00, 0.00, -0.00, -1.00, -4.0, 21.0)">P</text><text xml:space="preserve" font-family="Aller-Bold" font-weight="bold" font-size="80.0" fill="#A0CCA2" transform="matrix(1.00, 0.00, -0.00, -1.00, 42.6, 21.0)">h</text><text xml:space="preserve" font-family="Aller-Bold" font-weight="bold" font-size="80.0" fill="#A0CCA2" transform="matrix(1.00, 0.00, -0.00, -1.00, 89.5, 21.0)">y</text><text xml:space="preserve" font-family="Aller-Bold" font-weight="bold" font-size="80.0" fill="#A0CCA2" transform="matrix(1.00, 0.00, -0.00, -1.00, 132.9, 21.0)">s</text><text xml:space="preserve" font-family="Aller-Bold" font-weight="bold" font-size="80.0" fill="#A0CCA2" transform="matrix(1.00, 0.00, -0.00, -1.00, 169.7, 21.0)">i</text><text xml:space="preserve" font-family="Aller-Bold" font-weight="bold" font-size="80.0" fill="#A0CCA2" transform="matrix(1.00, 0.00, -0.00, -1.00, 194.2, 21.0)">c</text><text xml:space="preserve" font-family="Aller-Bold" font-weight="bold" font-size="80.0" fill="#A0CCA2" transform="matrix(1.00, 0.00, -0.00, -1.00, 232.2, 21.0)">a</text><text xml:space="preserve" font-family="Aller-Bold" font-weight="bold" font-size="80.0" fill="#A0CCA2" transform="matrix(1.00, 0.00, -0.00, -1.00, 274.0, 21.0)">l</text><text xml:space="preserve" font-family="Aller-Bold" font-weight="bold" font-size="80.0" fill="#A0CCA2" transform="matrix(1.00, 0.00, -0.00, -1.00, 299.9, 21.0)"> </text><text xml:space="preserve" font-family="Aller-Bold" font-weight="bold" font-size="80.0" fill="#A0CCA2" transform="matrix(1.00, 0.00, -0.00, -1.00, 317.5, 21.0)">C</text><text xml:space="preserve" font-family="Aller-Bold" font-weight="bold" font-size="80.0" fill="#A0CCA2" transform="matrix(1.00, 0.00, -0.00, -1.00, 366.2, 21.0)">o</text><text xml:space="preserve" font-family="Aller-Bold" font-weight="bold" font-size="80.0" fill="#A0CCA2" transform="matrix(1.00, 0.00, -0.00, -1.00, 412.6, 21.0)">n</text><text xml:space="preserve" font-family="Aller-Bold" font-weight="bold" font-size="80.0" fill="#A0CCA2" transform="matrix(1.00, 0.00, -0.00, -1.00, 459.5, 21.0)">d</text><text xml:space="preserve" font-family="Aller-Bold" font-weight="bold" font-size="80.0" fill="#A0CCA2" transform="matrix(1.00, 0.00, -0.00, -1.00, 506.6, 21.0)">i</text><text xml:space="preserve" font-family="Aller-Bold" font-weight="bold" font-size="80.0" fill="#A0CCA2" transform="matrix(1.00, 0.00, -0.00, -1.00, 531.1, 21.0)">t</text><text xml:space="preserve" font-family="Aller-Bold" font-weight="bold" font-size="80.0" fill="#A0CCA2" transform="matrix(1.00, 0.00, -0.00, -1.00, 561.8, 21.0)">i</text><text xml:space="preserve" font-family="Aller-Bold" font-weight="bold" font-size="80.0" fill="#A0CCA2" transform="matrix(1.00, 0.00, -0.00, -1.00, 586.3, 21.0)">o</text><text xml:space="preserve" font-family="Aller-Bold" font-weight="bold" font-size="80.0" fill="#A0CCA2" transform="matrix(1.00, 0.00, -0.00, -1.00, 632.7, 21.0)">n</text><text xml:space="preserve" font-family="Aller-Bold" font-weight="bold" font-size="80.0" fill="#A0CCA2" transform="matrix(1.00, 0.00, -0.00, -1.00, 679.7, 21.0)">s</text></g></svg>