<?xml version="1.0" encoding="UTF-8" standalone="no"?><svg xmlns="http://www.w3.org/2000/svg" xmlns:xlink="http://www.w3.org/1999/xlink" clip-rule="evenodd" stroke-miterlimit="4.00" viewBox="0 0 791 34"><desc>SVG generated by Keynote</desc><defs></defs><g transform="matrix(1.00, 0.00, -0.00, -1.00, 0.0, 34.0)"><text xml:space="preserve" font-family="Helvetica-Light" font-size="28.5" fill="#D5D5D5" transform="matrix(1.00, 0.00, -0.00, -1.00, 0.3, 8.1)">•</text><text xml:space="preserve" font-family="Helvetica-Light" font-size="38.0" fill="#D5D5D5" transform="matrix(1.00, 0.00, -0.00, -1.00, 35.0, 5.0)">F</text><text xml:space="preserve" font-family="Helvetica-Light" font-size="38.0" fill="#D5D5D5" transform="matrix(1.00, 0.00, -0.00, -1.00, 56.1, 5.0)">I</text><text xml:space="preserve" font-family="Helvetica-Light" font-size="38.0" fill="#D5D5D5" transform="matrix(1.00, 0.00, -0.00, -1.00, 66.7, 5.0)">N</text><text xml:space="preserve" font-family="Helvetica-Light" font-size="38.0" fill="#D5D5D5" transform="matrix(1.00, 0.00, -0.00, -1.00, 94.1, 5.0)">D</text><text xml:space="preserve" font-family="Helvetica-Light" font-size="38.0" fill="#D5D5D5" transform="matrix(1.00, 0.00, -0.00, -1.00, 121.6, 5.0)"> </text><text xml:space="preserve" font-family="Helvetica-Light" font-size="38.0" fill="#D5D5D5" transform="matrix(1.00, 0.00, -0.00, -1.00, 132.1, 5.0)">f</text><text xml:space="preserve" font-family="Helvetica-Light" font-size="38.0" fill="#D5D5D5" transform="matrix(1.00, 0.00, -0.00, -1.00, 142.7, 5.0)">u</text><text xml:space="preserve" font-family="Helvetica-Light" font-size="38.0" fill="#D5D5D5" transform="matrix(1.00, 0.00, -0.00, -1.00, 163.8, 5.0)">n</text><text xml:space="preserve" font-family="Helvetica-Light" font-size="38.0" fill="#D5D5D5" transform="matrix(1.00, 0.00, -0.00, -1.00, 184.9, 5.0)">c</text><text xml:space="preserve" font-family="Helvetica-Light" font-size="38.0" fill="#D5D5D5" transform="matrix(1.00, 0.00, -0.00, -1.00, 206.1, 5.0)">t</text><text xml:space="preserve" font-family="Helvetica-Light" font-size="38.0" fill="#D5D5D5" transform="matrix(1.00, 0.00, -0.00, -1.00, 216.6, 5.0)">i</text><text xml:space="preserve" font-family="Helvetica-Light" font-size="38.0" fill="#D5D5D5" transform="matrix(1.00, 0.00, -0.00, -1.00, 225.1, 5.0)">o</text><text xml:space="preserve" font-family="Helvetica-Light" font-size="38.0" fill="#D5D5D5" transform="matrix(1.00, 0.00, -0.00, -1.00, 246.2, 5.0)">n</text><text xml:space="preserve" font-family="Helvetica-Light" font-size="38.0" fill="#D5D5D5" transform="matrix(1.00, 0.00, -0.00, -1.00, 267.3, 5.0)"> </text><text xml:space="preserve" font-family="Helvetica-Light" font-size="38.0" fill="#D5D5D5" transform="matrix(1.00, 0.00, -0.00, -1.00, 277.9, 5.0)">f</text><text xml:space="preserve" font-family="Helvetica-Light" font-size="38.0" fill="#D5D5D5" transform="matrix(1.00, 0.00, -0.00, -1.00, 288.5, 5.0)">o</text><text xml:space="preserve" font-family="Helvetica-Light" font-size="38.0" fill="#D5D5D5" transform="matrix(1.00, 0.00, -0.00, -1.00, 309.6, 5.0)">r</text><text xml:space="preserve" font-family="Helvetica-Light" font-size="38.0" fill="#D5D5D5" transform="matrix(1.00, 0.00, -0.00, -1.00, 322.2, 5.0)"> </text><text xml:space="preserve" font-family="Helvetica-Light" font-size="38.0" fill="#D5D5D5" transform="matrix(1.00, 0.00, -0.00, -1.00, 332.8, 5.0)">T</text><text xml:space="preserve" font-family="Helvetica-Light" font-size="38.0" fill="#D5D5D5" transform="matrix(1.00, 0.00, -0.00, -1.00, 350.4, 5.0)">r</text><text xml:space="preserve" font-family="Helvetica-Light" font-size="38.0" fill="#D5D5D5" transform="matrix(1.00, 0.00, -0.00, -1.00, 363.1, 5.0)">a</text><text xml:space="preserve" font-family="Helvetica-Light" font-size="38.0" fill="#D5D5D5" transform="matrix(1.00, 0.00, -0.00, -1.00, 384.2, 5.0)">i</text><text xml:space="preserve" font-family="Helvetica-Light" font-size="38.0" fill="#D5D5D5" transform="matrix(1.00, 0.00, -0.00, -1.00, 392.7, 5.0)">l</text><text xml:space="preserve" font-family="Helvetica-Light" font-size="38.0" fill="#D5D5D5" transform="matrix(1.00, 0.00, -0.00, -1.00, 401.1, 5.0)">s</text><text xml:space="preserve" font-family="Helvetica-Light" font-size="38.0" fill="#D5D5D5" transform="matrix(1.00, 0.00, -0.00, -1.00, 420.1, 5.0)"> </text><text xml:space="preserve" font-family="Helvetica-Light" font-size="38.0" fill="#D5D5D5" transform="matrix(1.00, 0.00, -0.00, -1.00, 430.7, 5.0)">a</text><text xml:space="preserve" font-family="Helvetica-Light" font-size="38.0" fill="#D5D5D5" transform="matrix(1.00, 0.00, -0.00, -1.00, 451.8, 5.0)">n</text><text xml:space="preserve" font-family="Helvetica-Light" font-size="38.0" fill="#D5D5D5" transform="matrix(1.00, 0.00, -0.00, -1.00, 472.9, 5.0)">d</text><text xml:space="preserve" font-family="Helvetica-Light" font-size="38.0" fill="#D5D5D5" transform="matrix(1.00, 0.00, -0.00, -1.00, 496.1, 5.0)"> </text><text xml:space="preserve" font-family="Helvetica-Light" font-size="38.0" fill="#D5D5D5" transform="matrix(1.00, 0.00, -0.00, -1.00, 506.7, 5.0)">P</text><text xml:space="preserve" font-family="Helvetica-Light" font-size="38.0" fill="#D5D5D5" transform="matrix(1.00, 0.00, -0.00, -1.00, 529.9, 5.0)">o</text><text xml:space="preserve" font-family="Helvetica-Light" font-size="38.0" fill="#D5D5D5" transform="matrix(1.00, 0.00, -0.00, -1.00, 551.0, 5.0)">i</text><text xml:space="preserve" font-family="Helvetica-Light" font-size="38.0" fill="#D5D5D5" transform="matrix(1.00, 0.00, -0.00, -1.00, 559.5, 5.0)">n</text><text xml:space="preserve" font-family="Helvetica-Light" font-size="38.0" fill="#D5D5D5" transform="matrix(1.00, 0.00, -0.00, -1.00, 580.6, 5.0)">t</text><text xml:space="preserve" font-family="Helvetica-Light" font-size="38.0" fill="#D5D5D5" transform="matrix(1.00, 0.00, -0.00, -1.00, 591.2, 5.0)">s</text><text xml:space="preserve" font-family="Helvetica-Light" font-size="38.0" fill="#D5D5D5" transform="matrix(1.00, 0.00, -0.00, -1.00, 610.2, 5.0)"> </text><text xml:space="preserve" font-family="Helvetica-Light" font-size="38.0" fill="#D5D5D5" transform="matrix(1.00, 0.00, -0.00, -1.00, 620.7, 5.0)">o</text><text xml:space="preserve" font-family="Helvetica-Light" font-size="38.0" fill="#D5D5D5" transform="matrix(1.00, 0.00, -0.00, -1.00, 641.9, 5.0)">f</text><text xml:space="preserve" font-family="Helvetica-Light" font-size="38.0" fill="#D5D5D5" transform="matrix(1.00, 0.00, -0.00, -1.00, 652.4, 5.0)"> </text><text xml:space="preserve" font-family="Helvetica-Light" font-size="38.0" fill="#D5D5D5" transform="matrix(1.00, 0.00, -0.00, -1.00, 663.0, 5.0)">I</text><text xml:space="preserve" font-family="Helvetica-Light" font-size="38.0" fill="#D5D5D5" transform="matrix(1.00, 0.00, -0.00, -1.00, 673.6, 5.0)">n</text><text xml:space="preserve" font-family="Helvetica-Light" font-size="38.0" fill="#D5D5D5" transform="matrix(1.00, 0.00, -0.00, -1.00, 694.7, 5.0)">t</text><text xml:space="preserve" font-family="Helvetica-Light" font-size="38.0" fill="#D5D5D5" transform="matrix(1.00, 0.00, -0.00, -1.00, 705.2, 5.0)">e</text><text xml:space="preserve" font-family="Helvetica-Light" font-size="38.0" fill="#D5D5D5" transform="matrix(1.00, 0.00, -0.00, -1.00, 726.4, 5.0)">r</text><text xml:space="preserve" font-family="Helvetica-Light" font-size="38.0" fill="#D5D5D5" transform="matrix(1.00, 0.00, -0.00, -1.00, 738.3, 5.0)">e</text><text xml:space="preserve" font-family="Helvetica-Light" font-size="38.0" fill="#D5D5D5" transform="matrix(1.00, 0.00, -0.00, -1.00, 759.5, 5.0)">s</text><text xml:space="preserve" font-family="Helvetica-Light" font-size="38.0" fill="#D5D5D5" transform="matrix(1.00, 0.00, -0.00, -1.00, 778.5, 5.0)">t</text></g></svg>