<?xml version="1.0" encoding="UTF-8" standalone="no"?><svg xmlns="http://www.w3.org/2000/svg" xmlns:xlink="http://www.w3.org/1999/xlink" clip-rule="evenodd" stroke-miterlimit="4.00" viewBox="0 0 166 31"><desc>SVG generated by Keynote</desc><defs></defs><g transform="matrix(1.00, 0.00, -0.00, -1.00, 0.0, 31.0)"><text xml:space="preserve" font-family="Aller" font-size="20.8" fill="#FEFFFF" transform="matrix(1.00, 0.00, -0.00, -1.00, 0.0, 11.3)">•</text><text xml:space="preserve" font-family="Aller" font-size="27.7" fill="#FEFFFF" transform="matrix(1.00, 0.00, -0.00, -1.00, 26.0, 9.0)">F</text><text xml:space="preserve" font-family="Aller" font-size="27.7" fill="#FEFFFF" transform="matrix(1.00, 0.00, -0.00, -1.00, 40.0, 9.0)">i</text><text xml:space="preserve" font-family="Aller" font-size="27.7" fill="#FEFFFF" transform="matrix(1.00, 0.00, -0.00, -1.00, 48.0, 9.0)">x</text><text xml:space="preserve" font-family="Aller" font-size="27.7" fill="#FEFFFF" transform="matrix(1.00, 0.00, -0.00, -1.00, 61.8, 9.0)">e</text><text xml:space="preserve" font-family="Aller" font-size="27.7" fill="#FEFFFF" transform="matrix(1.00, 0.00, -0.00, -1.00, 77.2, 9.0)">d</text><text xml:space="preserve" font-family="Aller" font-size="27.7" fill="#FEFFFF" transform="matrix(1.00, 0.00, -0.00, -1.00, 93.4, 9.0)">-</text><text xml:space="preserve" font-family="Aller" font-size="27.7" fill="#FEFFFF" transform="matrix(1.00, 0.00, -0.00, -1.00, 103.5, 9.0)">w</text><text xml:space="preserve" font-family="Aller" font-size="27.7" fill="#FEFFFF" transform="matrix(1.00, 0.00, -0.00, -1.00, 124.9, 9.0)">i</text><text xml:space="preserve" font-family="Aller" font-size="27.7" fill="#FEFFFF" transform="matrix(1.00, 0.00, -0.00, -1.00, 132.9, 9.0)">n</text><text xml:space="preserve" font-family="Aller" font-size="27.7" fill="#FEFFFF" transform="matrix(1.00, 0.00, -0.00, -1.00, 149.0, 9.0)">g</text></g></svg>