<?xml version="1.0" encoding="UTF-8" standalone="no"?><svg xmlns="http://www.w3.org/2000/svg" xmlns:xlink="http://www.w3.org/1999/xlink" clip-rule="evenodd" stroke-miterlimit="4.00" viewBox="0 0 270 31"><desc>SVG generated by Keynote</desc><defs></defs><g transform="matrix(1.00, 0.00, -0.00, -1.00, 0.0, 31.0)"><text xml:space="preserve" font-family="Aller" font-size="20.8" fill="#FEFFFF" transform="matrix(1.00, 0.00, -0.00, -1.00, 0.0, 11.0)">•</text><text xml:space="preserve" font-family="Aller" font-size="27.7" fill="#FEFFFF" transform="matrix(1.00, 0.00, -0.00, -1.00, 26.0, 8.0)">L</text><text xml:space="preserve" font-family="Aller" font-size="27.7" fill="#FEFFFF" transform="matrix(1.00, 0.00, -0.00, -1.00, 39.7, 8.0)">a</text><text xml:space="preserve" font-family="Aller" font-size="27.7" fill="#FEFFFF" transform="matrix(1.00, 0.00, -0.00, -1.00, 54.1, 8.0)">r</text><text xml:space="preserve" font-family="Aller" font-size="27.7" fill="#FEFFFF" transform="matrix(1.00, 0.00, -0.00, -1.00, 64.3, 8.0)">g</text><text xml:space="preserve" font-family="Aller" font-size="27.7" fill="#FEFFFF" transform="matrix(1.00, 0.00, -0.00, -1.00, 79.3, 8.0)">e</text><text xml:space="preserve" font-family="Aller" font-size="27.7" fill="#FEFFFF" transform="matrix(1.00, 0.00, -0.00, -1.00, 94.7, 8.0)"> </text><text xml:space="preserve" font-family="Aller" font-size="27.7" fill="#FEFFFF" transform="matrix(1.00, 0.00, -0.00, -1.00, 101.3, 8.0)">&amp;</text><text xml:space="preserve" font-family="Aller" font-size="27.7" fill="#FEFFFF" transform="matrix(1.00, 0.00, -0.00, -1.00, 122.4, 8.0)"> </text><text xml:space="preserve" font-family="Aller" font-size="27.7" fill="#FEFFFF" transform="matrix(1.00, 0.00, -0.00, -1.00, 129.0, 8.0)">l</text><text xml:space="preserve" font-family="Aller" font-size="27.7" fill="#FEFFFF" transform="matrix(1.00, 0.00, -0.00, -1.00, 137.3, 8.0)">o</text><text xml:space="preserve" font-family="Aller" font-size="27.7" fill="#FEFFFF" transform="matrix(1.00, 0.00, -0.00, -1.00, 153.3, 8.0)">n</text><text xml:space="preserve" font-family="Aller" font-size="27.7" fill="#FEFFFF" transform="matrix(1.00, 0.00, -0.00, -1.00, 169.3, 8.0)">g</text><text xml:space="preserve" font-family="Aller" font-size="27.7" fill="#FEFFFF" transform="matrix(1.00, 0.00, -0.00, -1.00, 184.6, 8.0)"> </text><text xml:space="preserve" font-family="Aller" font-size="27.7" fill="#FEFFFF" transform="matrix(1.00, 0.00, -0.00, -1.00, 191.2, 8.0)">ﬂ</text><text xml:space="preserve" font-family="Aller" font-size="27.7" fill="#FEFFFF" transform="matrix(1.00, 0.00, -0.00, -1.00, 208.8, 8.0)">i</text><text xml:space="preserve" font-family="Aller" font-size="27.7" fill="#FEFFFF" transform="matrix(1.00, 0.00, -0.00, -1.00, 216.8, 8.0)">g</text><text xml:space="preserve" font-family="Aller" font-size="27.7" fill="#FEFFFF" transform="matrix(1.00, 0.00, -0.00, -1.00, 232.1, 8.0)">h</text><text xml:space="preserve" font-family="Aller" font-size="27.7" fill="#FEFFFF" transform="matrix(1.00, 0.00, -0.00, -1.00, 248.1, 8.0)">t</text><text xml:space="preserve" font-family="Aller" font-size="27.7" fill="#FEFFFF" transform="matrix(1.00, 0.00, -0.00, -1.00, 258.1, 8.0)">s</text></g></svg>