<?xml version="1.0" encoding="UTF-8" standalone="no"?><svg xmlns="http://www.w3.org/2000/svg" xmlns:xlink="http://www.w3.org/1999/xlink" clip-rule="evenodd" stroke-miterlimit="4.00" viewBox="0 0 152 26"><desc>SVG generated by Keynote</desc><defs></defs><g transform="matrix(1.00, 0.00, -0.00, -1.00, 0.0, 26.0)"><text xml:space="preserve" font-family="Aller" font-size="20.8" fill="#FEFFFF" transform="matrix(1.00, 0.00, -0.00, -1.00, 0.0, 6.3)">•</text><text xml:space="preserve" font-family="Aller" font-size="27.7" fill="#FEFFFF" transform="matrix(1.00, 0.00, -0.00, -1.00, 26.0, 4.0)">R</text><text xml:space="preserve" font-family="Aller" font-size="27.7" fill="#FEFFFF" transform="matrix(1.00, 0.00, -0.00, -1.00, 42.1, 4.0)">o</text><text xml:space="preserve" font-family="Aller" font-size="27.7" fill="#FEFFFF" transform="matrix(1.00, 0.00, -0.00, -1.00, 58.2, 4.0)">t</text><text xml:space="preserve" font-family="Aller" font-size="27.7" fill="#FEFFFF" transform="matrix(1.00, 0.00, -0.00, -1.00, 68.1, 4.0)">o</text><text xml:space="preserve" font-family="Aller" font-size="27.7" fill="#FEFFFF" transform="matrix(1.00, 0.00, -0.00, -1.00, 84.1, 4.0)">r</text><text xml:space="preserve" font-family="Aller" font-size="27.7" fill="#FEFFFF" transform="matrix(1.00, 0.00, -0.00, -1.00, 94.0, 4.0)">c</text><text xml:space="preserve" font-family="Aller" font-size="27.7" fill="#FEFFFF" transform="matrix(1.00, 0.00, -0.00, -1.00, 107.3, 4.0)">r</text><text xml:space="preserve" font-family="Aller" font-size="27.7" fill="#FEFFFF" transform="matrix(1.00, 0.00, -0.00, -1.00, 117.3, 4.0)">a</text><text xml:space="preserve" font-family="Aller" font-size="27.7" fill="#FEFFFF" transform="matrix(1.00, 0.00, -0.00, -1.00, 131.6, 4.0)">f</text><text xml:space="preserve" font-family="Aller" font-size="27.7" fill="#FEFFFF" transform="matrix(1.00, 0.00, -0.00, -1.00, 141.9, 4.0)">t</text></g></svg>