<?xml version="1.0" encoding="UTF-8" standalone="no"?><svg xmlns="http://www.w3.org/2000/svg" xmlns:xlink="http://www.w3.org/1999/xlink" clip-rule="evenodd" stroke-miterlimit="4.00" viewBox="0 0 553 38"><desc>SVG generated by Keynote</desc><defs></defs><g transform="matrix(1.00, 0.00, -0.00, -1.00, 0.0, 38.0)"><text xml:space="preserve" font-family="Helvetica-Light" font-size="27.9" fill="#D5D5D5" transform="matrix(1.00, 0.00, -0.00, -1.00, 0.3, 13.3)">•</text><text xml:space="preserve" font-family="Helvetica-Light" font-size="37.2" fill="#D5D5D5" transform="matrix(1.00, 0.00, -0.00, -1.00, 35.0, 9.0)">F</text><text xml:space="preserve" font-family="Helvetica-Light" font-size="37.2" fill="#D5D5D5" transform="matrix(1.00, 0.00, -0.00, -1.00, 55.7, 9.0)">i</text><text xml:space="preserve" font-family="Helvetica-Light" font-size="37.2" fill="#D5D5D5" transform="matrix(1.00, 0.00, -0.00, -1.00, 64.0, 9.0)">r</text><text xml:space="preserve" font-family="Helvetica-Light" font-size="37.2" fill="#D5D5D5" transform="matrix(1.00, 0.00, -0.00, -1.00, 76.4, 9.0)">s</text><text xml:space="preserve" font-family="Helvetica-Light" font-size="37.2" fill="#D5D5D5" transform="matrix(1.00, 0.00, -0.00, -1.00, 95.0, 9.0)">t</text><text xml:space="preserve" font-family="Helvetica-Light" font-size="37.2" fill="#D5D5D5" transform="matrix(1.00, 0.00, -0.00, -1.00, 105.3, 9.0)"> </text><text xml:space="preserve" font-family="Helvetica-Light" font-size="37.2" fill="#D5D5D5" transform="matrix(1.00, 0.00, -0.00, -1.00, 115.7, 9.0)">m</text><text xml:space="preserve" font-family="Helvetica-Light" font-size="37.2" fill="#D5D5D5" transform="matrix(1.00, 0.00, -0.00, -1.00, 146.7, 9.0)">o</text><text xml:space="preserve" font-family="Helvetica-Light" font-size="37.2" fill="#D5D5D5" transform="matrix(1.00, 0.00, -0.00, -1.00, 167.4, 9.0)">b</text><text xml:space="preserve" font-family="Helvetica-Light" font-size="37.2" fill="#D5D5D5" transform="matrix(1.00, 0.00, -0.00, -1.00, 190.2, 9.0)">i</text><text xml:space="preserve" font-family="Helvetica-Light" font-size="37.2" fill="#D5D5D5" transform="matrix(1.00, 0.00, -0.00, -1.00, 198.4, 9.0)">l</text><text xml:space="preserve" font-family="Helvetica-Light" font-size="37.2" fill="#D5D5D5" transform="matrix(1.00, 0.00, -0.00, -1.00, 206.7, 9.0)">e</text><text xml:space="preserve" font-family="Helvetica-Light" font-size="37.2" fill="#D5D5D5" transform="matrix(1.00, 0.00, -0.00, -1.00, 227.4, 9.0)"> </text><text xml:space="preserve" font-family="Helvetica-Light" font-size="37.2" fill="#D5D5D5" transform="matrix(1.00, 0.00, -0.00, -1.00, 237.8, 9.0)">w</text><text xml:space="preserve" font-family="Helvetica-Light" font-size="37.2" fill="#D5D5D5" transform="matrix(1.00, 0.00, -0.00, -1.00, 264.7, 9.0)">e</text><text xml:space="preserve" font-family="Helvetica-Light" font-size="37.2" fill="#D5D5D5" transform="matrix(1.00, 0.00, -0.00, -1.00, 285.4, 9.0)">b</text><text xml:space="preserve" font-family="Helvetica-Light" font-size="37.2" fill="#D5D5D5" transform="matrix(1.00, 0.00, -0.00, -1.00, 308.1, 9.0)"> </text><text xml:space="preserve" font-family="Helvetica-Light" font-size="37.2" fill="#D5D5D5" transform="matrix(1.00, 0.00, -0.00, -1.00, 318.5, 9.0)">a</text><text xml:space="preserve" font-family="Helvetica-Light" font-size="37.2" fill="#D5D5D5" transform="matrix(1.00, 0.00, -0.00, -1.00, 339.2, 9.0)">p</text><text xml:space="preserve" font-family="Helvetica-Light" font-size="37.2" fill="#D5D5D5" transform="matrix(1.00, 0.00, -0.00, -1.00, 361.9, 9.0)">p</text><text xml:space="preserve" font-family="Helvetica-Light" font-size="37.2" fill="#D5D5D5" transform="matrix(1.00, 0.00, -0.00, -1.00, 384.7, 9.0)"> </text><text xml:space="preserve" font-family="Helvetica-Light" font-size="37.2" fill="#D5D5D5" transform="matrix(1.00, 0.00, -0.00, -1.00, 395.0, 9.0)">o</text><text xml:space="preserve" font-family="Helvetica-Light" font-size="37.2" fill="#D5D5D5" transform="matrix(1.00, 0.00, -0.00, -1.00, 415.7, 9.0)">f</text><text xml:space="preserve" font-family="Helvetica-Light" font-size="37.2" fill="#D5D5D5" transform="matrix(1.00, 0.00, -0.00, -1.00, 426.1, 9.0)"> </text><text xml:space="preserve" font-family="Helvetica-Light" font-size="37.2" fill="#D5D5D5" transform="matrix(1.00, 0.00, -0.00, -1.00, 436.4, 9.0)">i</text><text xml:space="preserve" font-family="Helvetica-Light" font-size="37.2" fill="#D5D5D5" transform="matrix(1.00, 0.00, -0.00, -1.00, 444.7, 9.0)">t</text><text xml:space="preserve" font-family="Helvetica-Light" font-size="37.2" fill="#D5D5D5" transform="matrix(1.00, 0.00, -0.00, -1.00, 455.1, 9.0)">s</text><text xml:space="preserve" font-family="Helvetica-Light" font-size="37.2" fill="#D5D5D5" transform="matrix(1.00, 0.00, -0.00, -1.00, 473.7, 9.0)"> </text><text xml:space="preserve" font-family="Helvetica-Light" font-size="37.2" fill="#D5D5D5" transform="matrix(1.00, 0.00, -0.00, -1.00, 484.0, 9.0)">k</text><text xml:space="preserve" font-family="Helvetica-Light" font-size="37.2" fill="#D5D5D5" transform="matrix(1.00, 0.00, -0.00, -1.00, 502.7, 9.0)">i</text><text xml:space="preserve" font-family="Helvetica-Light" font-size="37.2" fill="#D5D5D5" transform="matrix(1.00, 0.00, -0.00, -1.00, 510.9, 9.0)">n</text><text xml:space="preserve" font-family="Helvetica-Light" font-size="37.2" fill="#D5D5D5" transform="matrix(1.00, 0.00, -0.00, -1.00, 531.6, 9.0)">d</text></g></svg>