<?xml version="1.0" encoding="UTF-8" standalone="no"?><svg xmlns="http://www.w3.org/2000/svg" xmlns:xlink="http://www.w3.org/1999/xlink" clip-rule="evenodd" stroke-miterlimit="4.00" viewBox="0 0 1024 768"><desc>SVG generated by Keynote</desc><defs></defs><g transform="matrix(1.00, 0.00, -0.00, -1.00, 0.0, 768.0)"><path d="M 0.0 768.0 L 1024.0 768.0 L 1024.0 0.0 L 0.0 0.0 Z M 0.0 768.0 " fill="#000000"></path><image xlink:href="../../7252D11D-7405-4426-B117-7F9951571649/assets/1BE871FC171072F61AFA31602AFB89F3.png" width="720.00" height="540.00" transform="matrix(1.42, 0.00, -0.00, -1.42, 0.0, 768.0)"></image><text xml:space="preserve" font-family="HelveticaLTStd-Blk" font-weight="bold" font-size="71.2" fill="#D5D5D5" transform="matrix(1.00, 0.00, -0.00, -1.00, 152.0, 690.0)">C</text><text xml:space="preserve" font-family="HelveticaLTStd-Blk" font-weight="bold" font-size="71.2" fill="#D5D5D5" transform="matrix(1.00, 0.00, -0.00, -1.00, 207.4, 690.0)">l</text><text xml:space="preserve" font-family="HelveticaLTStd-Blk" font-weight="bold" font-size="71.2" fill="#D5D5D5" transform="matrix(1.00, 0.00, -0.00, -1.00, 231.1, 690.0)">e</text><text xml:space="preserve" font-family="HelveticaLTStd-Blk" font-weight="bold" font-size="71.2" fill="#D5D5D5" transform="matrix(1.00, 0.00, -0.00, -1.00, 278.6, 690.0)">v</text><text xml:space="preserve" font-family="HelveticaLTStd-Blk" font-weight="bold" font-size="71.2" fill="#D5D5D5" transform="matrix(1.00, 0.00, -0.00, -1.00, 322.1, 690.0)">e</text><text xml:space="preserve" font-family="HelveticaLTStd-Blk" font-weight="bold" font-size="71.2" fill="#D5D5D5" transform="matrix(1.00, 0.00, -0.00, -1.00, 369.6, 690.0)">l</text><text xml:space="preserve" font-family="HelveticaLTStd-Blk" font-weight="bold" font-size="71.2" fill="#D5D5D5" transform="matrix(1.00, 0.00, -0.00, -1.00, 393.3, 690.0)">a</text><text xml:space="preserve" font-family="HelveticaLTStd-Blk" font-weight="bold" font-size="71.2" fill="#D5D5D5" transform="matrix(1.00, 0.00, -0.00, -1.00, 440.8, 690.0)">n</text><text xml:space="preserve" font-family="HelveticaLTStd-Blk" font-weight="bold" font-size="71.2" fill="#D5D5D5" transform="matrix(1.00, 0.00, -0.00, -1.00, 488.3, 690.0)">d</text><text xml:space="preserve" font-family="HelveticaLTStd-Blk" font-weight="bold" font-size="71.2" fill="#D5D5D5" transform="matrix(1.00, 0.00, -0.00, -1.00, 535.8, 690.0)"> </text><text xml:space="preserve" font-family="HelveticaLTStd-Blk" font-weight="bold" font-size="71.2" fill="#D5D5D5" transform="matrix(1.00, 0.00, -0.00, -1.00, 559.5, 690.0)">M</text><text xml:space="preserve" font-family="HelveticaLTStd-Blk" font-weight="bold" font-size="71.2" fill="#D5D5D5" transform="matrix(1.00, 0.00, -0.00, -1.00, 626.7, 690.0)">e</text><text xml:space="preserve" font-family="HelveticaLTStd-Blk" font-weight="bold" font-size="71.2" fill="#D5D5D5" transform="matrix(1.00, 0.00, -0.00, -1.00, 674.2, 690.0)">t</text><text xml:space="preserve" font-family="HelveticaLTStd-Blk" font-weight="bold" font-size="71.2" fill="#D5D5D5" transform="matrix(1.00, 0.00, -0.00, -1.00, 705.8, 690.0)">r</text><text xml:space="preserve" font-family="HelveticaLTStd-Blk" font-weight="bold" font-size="71.2" fill="#D5D5D5" transform="matrix(1.00, 0.00, -0.00, -1.00, 736.1, 690.0)">o</text><text xml:space="preserve" font-family="HelveticaLTStd-Blk" font-weight="bold" font-size="71.2" fill="#D5D5D5" transform="matrix(1.00, 0.00, -0.00, -1.00, 783.6, 690.0)">p</text><text xml:space="preserve" font-family="HelveticaLTStd-Blk" font-weight="bold" font-size="71.2" fill="#D5D5D5" transform="matrix(1.00, 0.00, -0.00, -1.00, 831.1, 690.0)">a</text><text xml:space="preserve" font-family="HelveticaLTStd-Blk" font-weight="bold" font-size="71.2" fill="#D5D5D5" transform="matrix(1.00, 0.00, -0.00, -1.00, 878.6, 690.0)">r</text><text xml:space="preserve" font-family="HelveticaLTStd-Blk" font-weight="bold" font-size="71.2" fill="#D5D5D5" transform="matrix(1.00, 0.00, -0.00, -1.00, 910.2, 690.0)">k</text><text xml:space="preserve" font-family="HelveticaLTStd-Blk" font-weight="bold" font-size="71.2" fill="#D5D5D5" transform="matrix(1.00, 0.00, -0.00, -1.00, 957.7, 690.0)">s</text><text xml:space="preserve" font-family="HelveticaLTStd-Blk" font-weight="bold" font-size="71.2" fill="#D5D5D5" transform="matrix(1.00, 0.00, -0.00, -1.00, 1001.2, 690.0)"> </text><text xml:space="preserve" font-family="HelveticaLTStd-Blk" font-weight="bold" font-size="71.2" fill="#D5D5D5" transform="matrix(1.00, 0.00, -0.00, -1.00, 382.0, 605.0)">T</text><text xml:space="preserve" font-family="HelveticaLTStd-Blk" font-weight="bold" font-size="71.2" fill="#D5D5D5" transform="matrix(1.00, 0.00, -0.00, -1.00, 426.9, 605.0)">r</text><text xml:space="preserve" font-family="HelveticaLTStd-Blk" font-weight="bold" font-size="71.2" fill="#D5D5D5" transform="matrix(1.00, 0.00, -0.00, -1.00, 458.5, 605.0)">a</text><text xml:space="preserve" font-family="HelveticaLTStd-Blk" font-weight="bold" font-size="71.2" fill="#D5D5D5" transform="matrix(1.00, 0.00, -0.00, -1.00, 506.0, 605.0)">i</text><text xml:space="preserve" font-family="HelveticaLTStd-Blk" font-weight="bold" font-size="71.2" fill="#D5D5D5" transform="matrix(1.00, 0.00, -0.00, -1.00, 529.7, 605.0)">l</text><text xml:space="preserve" font-family="HelveticaLTStd-Blk" font-weight="bold" font-size="71.2" fill="#D5D5D5" transform="matrix(1.00, 0.00, -0.00, -1.00, 553.4, 605.0)">s</text><text xml:space="preserve" font-family="HelveticaLTStd-Blk" font-weight="bold" font-size="71.2" fill="#D5D5D5" transform="matrix(1.00, 0.00, -0.00, -1.00, 596.9, 605.0)"> </text><text xml:space="preserve" font-family="HelveticaLTStd-Blk" font-weight="bold" font-size="71.2" fill="#D5D5D5" transform="matrix(1.00, 0.00, -0.00, -1.00, 620.6, 605.0)">A</text><text xml:space="preserve" font-family="HelveticaLTStd-Blk" font-weight="bold" font-size="71.2" fill="#D5D5D5" transform="matrix(1.00, 0.00, -0.00, -1.00, 676.0, 605.0)">p</text><text xml:space="preserve" font-family="HelveticaLTStd-Blk" font-weight="bold" font-size="71.2" fill="#D5D5D5" transform="matrix(1.00, 0.00, -0.00, -1.00, 723.5, 605.0)">p</text><text xml:space="preserve" font-family="Helvetica-Light" font-size="27.9" fill="#D5D5D5" transform="matrix(1.00, 0.00, -0.00, -1.00, 176.3, 505.4)">•</text><text xml:space="preserve" font-family="Helvetica-Light" font-size="37.2" fill="#D5D5D5" transform="matrix(1.00, 0.00, -0.00, -1.00, 211.0, 502.0)">L</text><text xml:space="preserve" font-family="Helvetica-Light" font-size="37.2" fill="#D5D5D5" transform="matrix(1.00, 0.00, -0.00, -1.00, 231.7, 502.0)">a</text><text xml:space="preserve" font-family="Helvetica-Light" font-size="37.2" fill="#D5D5D5" transform="matrix(1.00, 0.00, -0.00, -1.00, 252.4, 502.0)">u</text><text xml:space="preserve" font-family="Helvetica-Light" font-size="37.2" fill="#D5D5D5" transform="matrix(1.00, 0.00, -0.00, -1.00, 273.1, 502.0)">n</text><text xml:space="preserve" font-family="Helvetica-Light" font-size="37.2" fill="#D5D5D5" transform="matrix(1.00, 0.00, -0.00, -1.00, 293.8, 502.0)">c</text><text xml:space="preserve" font-family="Helvetica-Light" font-size="37.2" fill="#D5D5D5" transform="matrix(1.00, 0.00, -0.00, -1.00, 314.5, 502.0)">h</text><text xml:space="preserve" font-family="Helvetica-Light" font-size="37.2" fill="#D5D5D5" transform="matrix(1.00, 0.00, -0.00, -1.00, 335.2, 502.0)">e</text><text xml:space="preserve" font-family="Helvetica-Light" font-size="37.2" fill="#D5D5D5" transform="matrix(1.00, 0.00, -0.00, -1.00, 355.9, 502.0)">d</text><text xml:space="preserve" font-family="Helvetica-Light" font-size="37.2" fill="#D5D5D5" transform="matrix(1.00, 0.00, -0.00, -1.00, 378.7, 502.0)"> </text><text xml:space="preserve" font-family="Helvetica-Light" font-size="37.2" fill="#D5D5D5" transform="matrix(1.00, 0.00, -0.00, -1.00, 389.0, 502.0)">J</text><text xml:space="preserve" font-family="Helvetica-Light" font-size="37.2" fill="#D5D5D5" transform="matrix(1.00, 0.00, -0.00, -1.00, 407.7, 502.0)">a</text><text xml:space="preserve" font-family="Helvetica-Light" font-size="37.2" fill="#D5D5D5" transform="matrix(1.00, 0.00, -0.00, -1.00, 428.4, 502.0)">n</text><text xml:space="preserve" font-family="Helvetica-Light" font-size="37.2" fill="#D5D5D5" transform="matrix(1.00, 0.00, -0.00, -1.00, 449.1, 502.0)">u</text><text xml:space="preserve" font-family="Helvetica-Light" font-size="37.2" fill="#D5D5D5" transform="matrix(1.00, 0.00, -0.00, -1.00, 469.8, 502.0)">a</text><text xml:space="preserve" font-family="Helvetica-Light" font-size="37.2" fill="#D5D5D5" transform="matrix(1.00, 0.00, -0.00, -1.00, 490.5, 502.0)">r</text><text xml:space="preserve" font-family="Helvetica-Light" font-size="37.2" fill="#D5D5D5" transform="matrix(1.00, 0.00, -0.00, -1.00, 503.6, 502.0)">y</text><text xml:space="preserve" font-family="Helvetica-Light" font-size="37.2" fill="#D5D5D5" transform="matrix(1.00, 0.00, -0.00, -1.00, 522.2, 502.0)"> </text><text xml:space="preserve" font-family="Helvetica-Light" font-size="37.2" fill="#D5D5D5" transform="matrix(1.00, 0.00, -0.00, -1.00, 532.5, 502.0)">o</text><text xml:space="preserve" font-family="Helvetica-Light" font-size="37.2" fill="#D5D5D5" transform="matrix(1.00, 0.00, -0.00, -1.00, 553.2, 502.0)">f</text><text xml:space="preserve" font-family="Helvetica-Light" font-size="37.2" fill="#D5D5D5" transform="matrix(1.00, 0.00, -0.00, -1.00, 563.6, 502.0)"> </text><text xml:space="preserve" font-family="Helvetica-Light" font-size="37.2" fill="#D5D5D5" transform="matrix(1.00, 0.00, -0.00, -1.00, 573.9, 502.0)">2</text><text xml:space="preserve" font-family="Helvetica-Light" font-size="37.2" fill="#D5D5D5" transform="matrix(1.00, 0.00, -0.00, -1.00, 594.6, 502.0)">0</text><text xml:space="preserve" font-family="Helvetica-Light" font-size="37.2" fill="#D5D5D5" transform="matrix(1.00, 0.00, -0.00, -1.00, 615.4, 502.0)">1</text><text xml:space="preserve" font-family="Helvetica-Light" font-size="37.2" fill="#D5D5D5" transform="matrix(1.00, 0.00, -0.00, -1.00, 636.1, 502.0)">2</text><text xml:space="preserve" font-family="Helvetica-Light" font-size="37.2" fill="#D5D5D5" transform="matrix(1.00, 0.00, -0.00, -1.00, 656.8, 502.0)"> </text><text xml:space="preserve" font-family="Helvetica-Light" font-size="37.2" fill="#D5D5D5" transform="matrix(1.00, 0.00, -0.00, -1.00, 667.1, 502.0)">i</text><text xml:space="preserve" font-family="Helvetica-Light" font-size="37.2" fill="#D5D5D5" transform="matrix(1.00, 0.00, -0.00, -1.00, 675.4, 502.0)">n</text><text xml:space="preserve" font-family="Helvetica-Light" font-size="37.2" fill="#D5D5D5" transform="matrix(1.00, 0.00, -0.00, -1.00, 696.1, 502.0)"> </text><text xml:space="preserve" font-family="Helvetica-Light" font-size="37.2" fill="#D5D5D5" transform="matrix(1.00, 0.00, -0.00, -1.00, 211.0, 456.0)">c</text><text xml:space="preserve" font-family="Helvetica-Light" font-size="37.2" fill="#D5D5D5" transform="matrix(1.00, 0.00, -0.00, -1.00, 231.7, 456.0)">o</text><text xml:space="preserve" font-family="Helvetica-Light" font-size="37.2" fill="#D5D5D5" transform="matrix(1.00, 0.00, -0.00, -1.00, 252.4, 456.0)">n</text><text xml:space="preserve" font-family="Helvetica-Light" font-size="37.2" fill="#D5D5D5" transform="matrix(1.00, 0.00, -0.00, -1.00, 273.1, 456.0)">j</text><text xml:space="preserve" font-family="Helvetica-Light" font-size="37.2" fill="#D5D5D5" transform="matrix(1.00, 0.00, -0.00, -1.00, 281.4, 456.0)">u</text><text xml:space="preserve" font-family="Helvetica-Light" font-size="37.2" fill="#D5D5D5" transform="matrix(1.00, 0.00, -0.00, -1.00, 302.1, 456.0)">n</text><text xml:space="preserve" font-family="Helvetica-Light" font-size="37.2" fill="#D5D5D5" transform="matrix(1.00, 0.00, -0.00, -1.00, 322.8, 456.0)">c</text><text xml:space="preserve" font-family="Helvetica-Light" font-size="37.2" fill="#D5D5D5" transform="matrix(1.00, 0.00, -0.00, -1.00, 343.5, 456.0)">t</text><text xml:space="preserve" font-family="Helvetica-Light" font-size="37.2" fill="#D5D5D5" transform="matrix(1.00, 0.00, -0.00, -1.00, 353.9, 456.0)">i</text><text xml:space="preserve" font-family="Helvetica-Light" font-size="37.2" fill="#D5D5D5" transform="matrix(1.00, 0.00, -0.00, -1.00, 362.1, 456.0)">o</text><text xml:space="preserve" font-family="Helvetica-Light" font-size="37.2" fill="#D5D5D5" transform="matrix(1.00, 0.00, -0.00, -1.00, 382.8, 456.0)">n</text><text xml:space="preserve" font-family="Helvetica-Light" font-size="37.2" fill="#D5D5D5" transform="matrix(1.00, 0.00, -0.00, -1.00, 403.5, 456.0)"> </text><text xml:space="preserve" font-family="Helvetica-Light" font-size="37.2" fill="#D5D5D5" transform="matrix(1.00, 0.00, -0.00, -1.00, 413.9, 456.0)">w</text><text xml:space="preserve" font-family="Helvetica-Light" font-size="37.2" fill="#D5D5D5" transform="matrix(1.00, 0.00, -0.00, -1.00, 440.8, 456.0)">i</text><text xml:space="preserve" font-family="Helvetica-Light" font-size="37.2" fill="#D5D5D5" transform="matrix(1.00, 0.00, -0.00, -1.00, 449.0, 456.0)">t</text><text xml:space="preserve" font-family="Helvetica-Light" font-size="37.2" fill="#D5D5D5" transform="matrix(1.00, 0.00, -0.00, -1.00, 459.4, 456.0)">h</text><text xml:space="preserve" font-family="Helvetica-Light" font-size="37.2" fill="#D5D5D5" transform="matrix(1.00, 0.00, -0.00, -1.00, 480.1, 456.0)"> </text><text xml:space="preserve" font-family="Helvetica-Light" font-size="37.2" fill="#D5D5D5" transform="matrix(1.00, 0.00, -0.00, -1.00, 490.4, 456.0)">S</text><text xml:space="preserve" font-family="Helvetica-Light" font-size="37.2" fill="#D5D5D5" transform="matrix(1.00, 0.00, -0.00, -1.00, 513.2, 456.0)">o</text><text xml:space="preserve" font-family="Helvetica-Light" font-size="37.2" fill="#D5D5D5" transform="matrix(1.00, 0.00, -0.00, -1.00, 533.9, 456.0)">u</text><text xml:space="preserve" font-family="Helvetica-Light" font-size="37.2" fill="#D5D5D5" transform="matrix(1.00, 0.00, -0.00, -1.00, 554.6, 456.0)">t</text><text xml:space="preserve" font-family="Helvetica-Light" font-size="37.2" fill="#D5D5D5" transform="matrix(1.00, 0.00, -0.00, -1.00, 565.0, 456.0)">h</text><text xml:space="preserve" font-family="Helvetica-Light" font-size="37.2" fill="#D5D5D5" transform="matrix(1.00, 0.00, -0.00, -1.00, 585.7, 456.0)">w</text><text xml:space="preserve" font-family="Helvetica-Light" font-size="37.2" fill="#D5D5D5" transform="matrix(1.00, 0.00, -0.00, -1.00, 612.6, 456.0)">e</text><text xml:space="preserve" font-family="Helvetica-Light" font-size="37.2" fill="#D5D5D5" transform="matrix(1.00, 0.00, -0.00, -1.00, 633.3, 456.0)">s</text><text xml:space="preserve" font-family="Helvetica-Light" font-size="37.2" fill="#D5D5D5" transform="matrix(1.00, 0.00, -0.00, -1.00, 651.9, 456.0)">t</text><text xml:space="preserve" font-family="Helvetica-Light" font-size="37.2" fill="#D5D5D5" transform="matrix(1.00, 0.00, -0.00, -1.00, 662.2, 456.0)"> </text><text xml:space="preserve" font-family="Helvetica-Light" font-size="37.2" fill="#D5D5D5" transform="matrix(1.00, 0.00, -0.00, -1.00, 211.0, 410.0)">G</text><text xml:space="preserve" font-family="Helvetica-Light" font-size="37.2" fill="#D5D5D5" transform="matrix(1.00, 0.00, -0.00, -1.00, 240.0, 410.0)">e</text><text xml:space="preserve" font-family="Helvetica-Light" font-size="37.2" fill="#D5D5D5" transform="matrix(1.00, 0.00, -0.00, -1.00, 260.7, 410.0)">n</text><text xml:space="preserve" font-family="Helvetica-Light" font-size="37.2" fill="#D5D5D5" transform="matrix(1.00, 0.00, -0.00, -1.00, 281.4, 410.0)">e</text><text xml:space="preserve" font-family="Helvetica-Light" font-size="37.2" fill="#D5D5D5" transform="matrix(1.00, 0.00, -0.00, -1.00, 302.1, 410.0)">r</text><text xml:space="preserve" font-family="Helvetica-Light" font-size="37.2" fill="#D5D5D5" transform="matrix(1.00, 0.00, -0.00, -1.00, 314.5, 410.0)">a</text><text xml:space="preserve" font-family="Helvetica-Light" font-size="37.2" fill="#D5D5D5" transform="matrix(1.00, 0.00, -0.00, -1.00, 335.2, 410.0)">l</text><text xml:space="preserve" font-family="Helvetica-Light" font-size="37.2" fill="#D5D5D5" transform="matrix(1.00, 0.00, -0.00, -1.00, 343.5, 410.0)"> </text><text xml:space="preserve" font-family="Helvetica-Light" font-size="37.2" fill="#D5D5D5" transform="matrix(1.00, 0.00, -0.00, -1.00, 353.8, 410.0)">a</text><text xml:space="preserve" font-family="Helvetica-Light" font-size="37.2" fill="#D5D5D5" transform="matrix(1.00, 0.00, -0.00, -1.00, 374.5, 410.0)">n</text><text xml:space="preserve" font-family="Helvetica-Light" font-size="37.2" fill="#D5D5D5" transform="matrix(1.00, 0.00, -0.00, -1.00, 395.2, 410.0)">d</text><text xml:space="preserve" font-family="Helvetica-Light" font-size="37.2" fill="#D5D5D5" transform="matrix(1.00, 0.00, -0.00, -1.00, 418.0, 410.0)"> </text><text xml:space="preserve" font-family="Helvetica-Light" font-size="37.2" fill="#D5D5D5" transform="matrix(1.00, 0.00, -0.00, -1.00, 428.3, 410.0)">G</text><text xml:space="preserve" font-family="Helvetica-Light" font-size="37.2" fill="#D5D5D5" transform="matrix(1.00, 0.00, -0.00, -1.00, 457.3, 410.0)">r</text><text xml:space="preserve" font-family="Helvetica-Light" font-size="37.2" fill="#D5D5D5" transform="matrix(1.00, 0.00, -0.00, -1.00, 469.0, 410.0)">e</text><text xml:space="preserve" font-family="Helvetica-Light" font-size="37.2" fill="#D5D5D5" transform="matrix(1.00, 0.00, -0.00, -1.00, 489.7, 410.0)">e</text><text xml:space="preserve" font-family="Helvetica-Light" font-size="37.2" fill="#D5D5D5" transform="matrix(1.00, 0.00, -0.00, -1.00, 510.4, 410.0)">n</text><text xml:space="preserve" font-family="Helvetica-Light" font-size="37.2" fill="#D5D5D5" transform="matrix(1.00, 0.00, -0.00, -1.00, 531.2, 410.0)">I</text><text xml:space="preserve" font-family="Helvetica-Light" font-size="37.2" fill="#D5D5D5" transform="matrix(1.00, 0.00, -0.00, -1.00, 541.5, 410.0)">n</text><text xml:space="preserve" font-family="Helvetica-Light" font-size="37.2" fill="#D5D5D5" transform="matrix(1.00, 0.00, -0.00, -1.00, 562.2, 410.0)">f</text><text xml:space="preserve" font-family="Helvetica-Light" font-size="37.2" fill="#D5D5D5" transform="matrix(1.00, 0.00, -0.00, -1.00, 572.6, 410.0)">o</text><text xml:space="preserve" font-family="Helvetica-Light" font-size="37.2" fill="#D5D5D5" transform="matrix(1.00, 0.00, -0.00, -1.00, 593.3, 410.0)"> </text><text xml:space="preserve" font-family="Helvetica-Light" font-size="37.2" fill="#D5D5D5" transform="matrix(1.00, 0.00, -0.00, -1.00, 603.6, 410.0)">N</text><text xml:space="preserve" font-family="Helvetica-Light" font-size="37.2" fill="#D5D5D5" transform="matrix(1.00, 0.00, -0.00, -1.00, 630.5, 410.0)">e</text><text xml:space="preserve" font-family="Helvetica-Light" font-size="37.2" fill="#D5D5D5" transform="matrix(1.00, 0.00, -0.00, -1.00, 651.2, 410.0)">t</text><text xml:space="preserve" font-family="Helvetica-Light" font-size="37.2" fill="#D5D5D5" transform="matrix(1.00, 0.00, -0.00, -1.00, 661.6, 410.0)">w</text><text xml:space="preserve" font-family="Helvetica-Light" font-size="37.2" fill="#D5D5D5" transform="matrix(1.00, 0.00, -0.00, -1.00, 688.5, 410.0)">o</text><text xml:space="preserve" font-family="Helvetica-Light" font-size="37.2" fill="#D5D5D5" transform="matrix(1.00, 0.00, -0.00, -1.00, 709.2, 410.0)">r</text><text xml:space="preserve" font-family="Helvetica-Light" font-size="37.2" fill="#D5D5D5" transform="matrix(1.00, 0.00, -0.00, -1.00, 721.6, 410.0)">k</text><text xml:space="preserve" font-family="Helvetica-Light" font-size="27.9" fill="#D5D5D5" transform="matrix(1.00, 0.00, -0.00, -1.00, 176.3, 326.3)">•</text><text xml:space="preserve" font-family="Helvetica-Light" font-size="37.2" fill="#D5D5D5" transform="matrix(1.00, 0.00, -0.00, -1.00, 211.0, 322.0)">F</text><text xml:space="preserve" font-family="Helvetica-Light" font-size="37.2" fill="#D5D5D5" transform="matrix(1.00, 0.00, -0.00, -1.00, 231.7, 322.0)">i</text><text xml:space="preserve" font-family="Helvetica-Light" font-size="37.2" fill="#D5D5D5" transform="matrix(1.00, 0.00, -0.00, -1.00, 240.0, 322.0)">r</text><text xml:space="preserve" font-family="Helvetica-Light" font-size="37.2" fill="#D5D5D5" transform="matrix(1.00, 0.00, -0.00, -1.00, 252.4, 322.0)">s</text><text xml:space="preserve" font-family="Helvetica-Light" font-size="37.2" fill="#D5D5D5" transform="matrix(1.00, 0.00, -0.00, -1.00, 271.0, 322.0)">t</text><text xml:space="preserve" font-family="Helvetica-Light" font-size="37.2" fill="#D5D5D5" transform="matrix(1.00, 0.00, -0.00, -1.00, 281.3, 322.0)"> </text><text xml:space="preserve" font-family="Helvetica-Light" font-size="37.2" fill="#D5D5D5" transform="matrix(1.00, 0.00, -0.00, -1.00, 291.7, 322.0)">m</text><text xml:space="preserve" font-family="Helvetica-Light" font-size="37.2" fill="#D5D5D5" transform="matrix(1.00, 0.00, -0.00, -1.00, 322.7, 322.0)">o</text><text xml:space="preserve" font-family="Helvetica-Light" font-size="37.2" fill="#D5D5D5" transform="matrix(1.00, 0.00, -0.00, -1.00, 343.4, 322.0)">b</text><text xml:space="preserve" font-family="Helvetica-Light" font-size="37.2" fill="#D5D5D5" transform="matrix(1.00, 0.00, -0.00, -1.00, 366.2, 322.0)">i</text><text xml:space="preserve" font-family="Helvetica-Light" font-size="37.2" fill="#D5D5D5" transform="matrix(1.00, 0.00, -0.00, -1.00, 374.4, 322.0)">l</text><text xml:space="preserve" font-family="Helvetica-Light" font-size="37.2" fill="#D5D5D5" transform="matrix(1.00, 0.00, -0.00, -1.00, 382.7, 322.0)">e</text><text xml:space="preserve" font-family="Helvetica-Light" font-size="37.2" fill="#D5D5D5" transform="matrix(1.00, 0.00, -0.00, -1.00, 403.4, 322.0)"> </text><text xml:space="preserve" font-family="Helvetica-Light" font-size="37.2" fill="#D5D5D5" transform="matrix(1.00, 0.00, -0.00, -1.00, 413.8, 322.0)">w</text><text xml:space="preserve" font-family="Helvetica-Light" font-size="37.2" fill="#D5D5D5" transform="matrix(1.00, 0.00, -0.00, -1.00, 440.7, 322.0)">e</text><text xml:space="preserve" font-family="Helvetica-Light" font-size="37.2" fill="#D5D5D5" transform="matrix(1.00, 0.00, -0.00, -1.00, 461.4, 322.0)">b</text><text xml:space="preserve" font-family="Helvetica-Light" font-size="37.2" fill="#D5D5D5" transform="matrix(1.00, 0.00, -0.00, -1.00, 484.1, 322.0)"> </text><text xml:space="preserve" font-family="Helvetica-Light" font-size="37.2" fill="#D5D5D5" transform="matrix(1.00, 0.00, -0.00, -1.00, 494.5, 322.0)">a</text><text xml:space="preserve" font-family="Helvetica-Light" font-size="37.2" fill="#D5D5D5" transform="matrix(1.00, 0.00, -0.00, -1.00, 515.2, 322.0)">p</text><text xml:space="preserve" font-family="Helvetica-Light" font-size="37.2" fill="#D5D5D5" transform="matrix(1.00, 0.00, -0.00, -1.00, 537.9, 322.0)">p</text><text xml:space="preserve" font-family="Helvetica-Light" font-size="37.2" fill="#D5D5D5" transform="matrix(1.00, 0.00, -0.00, -1.00, 560.7, 322.0)"> </text><text xml:space="preserve" font-family="Helvetica-Light" font-size="37.2" fill="#D5D5D5" transform="matrix(1.00, 0.00, -0.00, -1.00, 571.0, 322.0)">o</text><text xml:space="preserve" font-family="Helvetica-Light" font-size="37.2" fill="#D5D5D5" transform="matrix(1.00, 0.00, -0.00, -1.00, 591.7, 322.0)">f</text><text xml:space="preserve" font-family="Helvetica-Light" font-size="37.2" fill="#D5D5D5" transform="matrix(1.00, 0.00, -0.00, -1.00, 602.1, 322.0)"> </text><text xml:space="preserve" font-family="Helvetica-Light" font-size="37.2" fill="#D5D5D5" transform="matrix(1.00, 0.00, -0.00, -1.00, 612.4, 322.0)">i</text><text xml:space="preserve" font-family="Helvetica-Light" font-size="37.2" fill="#D5D5D5" transform="matrix(1.00, 0.00, -0.00, -1.00, 620.7, 322.0)">t</text><text xml:space="preserve" font-family="Helvetica-Light" font-size="37.2" fill="#D5D5D5" transform="matrix(1.00, 0.00, -0.00, -1.00, 631.1, 322.0)">s</text><text xml:space="preserve" font-family="Helvetica-Light" font-size="37.2" fill="#D5D5D5" transform="matrix(1.00, 0.00, -0.00, -1.00, 649.7, 322.0)"> </text><text xml:space="preserve" font-family="Helvetica-Light" font-size="37.2" fill="#D5D5D5" transform="matrix(1.00, 0.00, -0.00, -1.00, 660.0, 322.0)">k</text><text xml:space="preserve" font-family="Helvetica-Light" font-size="37.2" fill="#D5D5D5" transform="matrix(1.00, 0.00, -0.00, -1.00, 678.7, 322.0)">i</text><text xml:space="preserve" font-family="Helvetica-Light" font-size="37.2" fill="#D5D5D5" transform="matrix(1.00, 0.00, -0.00, -1.00, 686.9, 322.0)">n</text><text xml:space="preserve" font-family="Helvetica-Light" font-size="37.2" fill="#D5D5D5" transform="matrix(1.00, 0.00, -0.00, -1.00, 707.6, 322.0)">d</text><text xml:space="preserve" font-family="Helvetica-Light" font-size="27.9" fill="#D5D5D5" transform="matrix(1.00, 0.00, -0.00, -1.00, 176.3, 239.1)">•</text><text xml:space="preserve" font-family="Helvetica-Light" font-size="37.2" fill="#D5D5D5" transform="matrix(1.00, 0.00, -0.00, -1.00, 211.0, 235.0)">C</text><text xml:space="preserve" font-family="Helvetica-Light" font-size="37.2" fill="#D5D5D5" transform="matrix(1.00, 0.00, -0.00, -1.00, 237.9, 235.0)">l</text><text xml:space="preserve" font-family="Helvetica-Light" font-size="37.2" fill="#D5D5D5" transform="matrix(1.00, 0.00, -0.00, -1.00, 246.2, 235.0)">e</text><text xml:space="preserve" font-family="Helvetica-Light" font-size="37.2" fill="#D5D5D5" transform="matrix(1.00, 0.00, -0.00, -1.00, 266.9, 235.0)">v</text><text xml:space="preserve" font-family="Helvetica-Light" font-size="37.2" fill="#D5D5D5" transform="matrix(1.00, 0.00, -0.00, -1.00, 285.5, 235.0)">e</text><text xml:space="preserve" font-family="Helvetica-Light" font-size="37.2" fill="#D5D5D5" transform="matrix(1.00, 0.00, -0.00, -1.00, 306.2, 235.0)">l</text><text xml:space="preserve" font-family="Helvetica-Light" font-size="37.2" fill="#D5D5D5" transform="matrix(1.00, 0.00, -0.00, -1.00, 314.5, 235.0)">a</text><text xml:space="preserve" font-family="Helvetica-Light" font-size="37.2" fill="#D5D5D5" transform="matrix(1.00, 0.00, -0.00, -1.00, 335.2, 235.0)">n</text><text xml:space="preserve" font-family="Helvetica-Light" font-size="37.2" fill="#D5D5D5" transform="matrix(1.00, 0.00, -0.00, -1.00, 355.9, 235.0)">d</text><text xml:space="preserve" font-family="Helvetica-Light" font-size="37.2" fill="#D5D5D5" transform="matrix(1.00, 0.00, -0.00, -1.00, 378.6, 235.0)"> </text><text xml:space="preserve" font-family="Helvetica-Light" font-size="37.2" fill="#D5D5D5" transform="matrix(1.00, 0.00, -0.00, -1.00, 389.0, 235.0)">M</text><text xml:space="preserve" font-family="Helvetica-Light" font-size="37.2" fill="#D5D5D5" transform="matrix(1.00, 0.00, -0.00, -1.00, 420.0, 235.0)">e</text><text xml:space="preserve" font-family="Helvetica-Light" font-size="37.2" fill="#D5D5D5" transform="matrix(1.00, 0.00, -0.00, -1.00, 440.7, 235.0)">t</text><text xml:space="preserve" font-family="Helvetica-Light" font-size="37.2" fill="#D5D5D5" transform="matrix(1.00, 0.00, -0.00, -1.00, 451.0, 235.0)">r</text><text xml:space="preserve" font-family="Helvetica-Light" font-size="37.2" fill="#D5D5D5" transform="matrix(1.00, 0.00, -0.00, -1.00, 462.8, 235.0)">o</text><text xml:space="preserve" font-family="Helvetica-Light" font-size="37.2" fill="#D5D5D5" transform="matrix(1.00, 0.00, -0.00, -1.00, 483.5, 235.0)">p</text><text xml:space="preserve" font-family="Helvetica-Light" font-size="37.2" fill="#D5D5D5" transform="matrix(1.00, 0.00, -0.00, -1.00, 506.2, 235.0)">a</text><text xml:space="preserve" font-family="Helvetica-Light" font-size="37.2" fill="#D5D5D5" transform="matrix(1.00, 0.00, -0.00, -1.00, 526.9, 235.0)">r</text><text xml:space="preserve" font-family="Helvetica-Light" font-size="37.2" fill="#D5D5D5" transform="matrix(1.00, 0.00, -0.00, -1.00, 539.3, 235.0)">k</text><text xml:space="preserve" font-family="Helvetica-Light" font-size="37.2" fill="#D5D5D5" transform="matrix(1.00, 0.00, -0.00, -1.00, 558.0, 235.0)">s</text><text xml:space="preserve" font-family="Helvetica-Light" font-size="37.2" fill="#D5D5D5" transform="matrix(1.00, 0.00, -0.00, -1.00, 576.6, 235.0)"> </text><text xml:space="preserve" font-family="Helvetica-Light" font-size="37.2" fill="#D5D5D5" transform="matrix(1.00, 0.00, -0.00, -1.00, 586.9, 235.0)">ﬁ</text><text xml:space="preserve" font-family="Helvetica-Light" font-size="37.2" fill="#D5D5D5" transform="matrix(1.00, 0.00, -0.00, -1.00, 605.6, 235.0)">r</text><text xml:space="preserve" font-family="Helvetica-Light" font-size="37.2" fill="#D5D5D5" transform="matrix(1.00, 0.00, -0.00, -1.00, 618.0, 235.0)">s</text><text xml:space="preserve" font-family="Helvetica-Light" font-size="37.2" fill="#D5D5D5" transform="matrix(1.00, 0.00, -0.00, -1.00, 636.6, 235.0)">t</text><text xml:space="preserve" font-family="Helvetica-Light" font-size="37.2" fill="#D5D5D5" transform="matrix(1.00, 0.00, -0.00, -1.00, 646.9, 235.0)"> </text><text xml:space="preserve" font-family="Helvetica-Light" font-size="37.2" fill="#D5D5D5" transform="matrix(1.00, 0.00, -0.00, -1.00, 211.0, 189.0)">m</text><text xml:space="preserve" font-family="Helvetica-Light" font-size="37.2" fill="#D5D5D5" transform="matrix(1.00, 0.00, -0.00, -1.00, 242.0, 189.0)">o</text><text xml:space="preserve" font-family="Helvetica-Light" font-size="37.2" fill="#D5D5D5" transform="matrix(1.00, 0.00, -0.00, -1.00, 262.7, 189.0)">b</text><text xml:space="preserve" font-family="Helvetica-Light" font-size="37.2" fill="#D5D5D5" transform="matrix(1.00, 0.00, -0.00, -1.00, 285.5, 189.0)">i</text><text xml:space="preserve" font-family="Helvetica-Light" font-size="37.2" fill="#D5D5D5" transform="matrix(1.00, 0.00, -0.00, -1.00, 293.7, 189.0)">l</text><text xml:space="preserve" font-family="Helvetica-Light" font-size="37.2" fill="#D5D5D5" transform="matrix(1.00, 0.00, -0.00, -1.00, 302.0, 189.0)">e</text><text xml:space="preserve" font-family="Helvetica-Light" font-size="37.2" fill="#D5D5D5" transform="matrix(1.00, 0.00, -0.00, -1.00, 322.7, 189.0)"> </text><text xml:space="preserve" font-family="Helvetica-Light" font-size="37.2" fill="#D5D5D5" transform="matrix(1.00, 0.00, -0.00, -1.00, 333.1, 189.0)">e</text><text xml:space="preserve" font-family="Helvetica-Light" font-size="37.2" fill="#D5D5D5" transform="matrix(1.00, 0.00, -0.00, -1.00, 353.8, 189.0)">n</text><text xml:space="preserve" font-family="Helvetica-Light" font-size="37.2" fill="#D5D5D5" transform="matrix(1.00, 0.00, -0.00, -1.00, 374.5, 189.0)">a</text><text xml:space="preserve" font-family="Helvetica-Light" font-size="37.2" fill="#D5D5D5" transform="matrix(1.00, 0.00, -0.00, -1.00, 395.2, 189.0)">b</text><text xml:space="preserve" font-family="Helvetica-Light" font-size="37.2" fill="#D5D5D5" transform="matrix(1.00, 0.00, -0.00, -1.00, 417.9, 189.0)">l</text><text xml:space="preserve" font-family="Helvetica-Light" font-size="37.2" fill="#D5D5D5" transform="matrix(1.00, 0.00, -0.00, -1.00, 426.2, 189.0)">e</text><text xml:space="preserve" font-family="Helvetica-Light" font-size="37.2" fill="#D5D5D5" transform="matrix(1.00, 0.00, -0.00, -1.00, 446.9, 189.0)">d</text><text xml:space="preserve" font-family="Helvetica-Light" font-size="37.2" fill="#D5D5D5" transform="matrix(1.00, 0.00, -0.00, -1.00, 469.7, 189.0)"> </text><text xml:space="preserve" font-family="Helvetica-Light" font-size="37.2" fill="#D5D5D5" transform="matrix(1.00, 0.00, -0.00, -1.00, 480.0, 189.0)">w</text><text xml:space="preserve" font-family="Helvetica-Light" font-size="37.2" fill="#D5D5D5" transform="matrix(1.00, 0.00, -0.00, -1.00, 506.9, 189.0)">e</text><text xml:space="preserve" font-family="Helvetica-Light" font-size="37.2" fill="#D5D5D5" transform="matrix(1.00, 0.00, -0.00, -1.00, 527.6, 189.0)">b</text><text xml:space="preserve" font-family="Helvetica-Light" font-size="37.2" fill="#D5D5D5" transform="matrix(1.00, 0.00, -0.00, -1.00, 550.4, 189.0)"> </text><text xml:space="preserve" font-family="Helvetica-Light" font-size="37.2" fill="#D5D5D5" transform="matrix(1.00, 0.00, -0.00, -1.00, 560.7, 189.0)">p</text><text xml:space="preserve" font-family="Helvetica-Light" font-size="37.2" fill="#D5D5D5" transform="matrix(1.00, 0.00, -0.00, -1.00, 583.5, 189.0)">a</text><text xml:space="preserve" font-family="Helvetica-Light" font-size="37.2" fill="#D5D5D5" transform="matrix(1.00, 0.00, -0.00, -1.00, 604.2, 189.0)">g</text><text xml:space="preserve" font-family="Helvetica-Light" font-size="37.2" fill="#D5D5D5" transform="matrix(1.00, 0.00, -0.00, -1.00, 626.9, 189.0)">e</text><text xml:space="preserve" font-family="Helvetica-Light" font-size="27.9" fill="#D5D5D5" transform="matrix(1.00, 0.00, -0.00, -1.00, 176.3, 105.9)">•</text><text xml:space="preserve" font-family="Helvetica-Light" font-size="37.2" fill="#D5D5D5" transform="matrix(1.00, 0.00, -0.00, -1.00, 211.0, 102.0)">&gt;</text><text xml:space="preserve" font-family="Helvetica-Light" font-size="37.2" fill="#D5D5D5" transform="matrix(1.00, 0.00, -0.00, -1.00, 235.6, 102.0)"> </text><text xml:space="preserve" font-family="Helvetica-Light" font-size="37.2" fill="#D5D5D5" transform="matrix(1.00, 0.00, -0.00, -1.00, 245.9, 102.0)">1</text><text xml:space="preserve" font-family="Helvetica-Light" font-size="37.2" fill="#D5D5D5" transform="matrix(1.00, 0.00, -0.00, -1.00, 266.6, 102.0)">0</text><text xml:space="preserve" font-family="Helvetica-Light" font-size="37.2" fill="#D5D5D5" transform="matrix(1.00, 0.00, -0.00, -1.00, 287.3, 102.0)">k</text><text xml:space="preserve" font-family="Helvetica-Light" font-size="37.2" fill="#D5D5D5" transform="matrix(1.00, 0.00, -0.00, -1.00, 306.0, 102.0)"> </text><text xml:space="preserve" font-family="Helvetica-Light" font-size="37.2" fill="#D5D5D5" transform="matrix(1.00, 0.00, -0.00, -1.00, 316.3, 102.0)">u</text><text xml:space="preserve" font-family="Helvetica-Light" font-size="37.2" fill="#D5D5D5" transform="matrix(1.00, 0.00, -0.00, -1.00, 337.0, 102.0)">n</text><text xml:space="preserve" font-family="Helvetica-Light" font-size="37.2" fill="#D5D5D5" transform="matrix(1.00, 0.00, -0.00, -1.00, 357.7, 102.0)">i</text><text xml:space="preserve" font-family="Helvetica-Light" font-size="37.2" fill="#D5D5D5" transform="matrix(1.00, 0.00, -0.00, -1.00, 366.0, 102.0)">q</text><text xml:space="preserve" font-family="Helvetica-Light" font-size="37.2" fill="#D5D5D5" transform="matrix(1.00, 0.00, -0.00, -1.00, 388.7, 102.0)">u</text><text xml:space="preserve" font-family="Helvetica-Light" font-size="37.2" fill="#D5D5D5" transform="matrix(1.00, 0.00, -0.00, -1.00, 409.5, 102.0)">e</text><text xml:space="preserve" font-family="Helvetica-Light" font-size="37.2" fill="#D5D5D5" transform="matrix(1.00, 0.00, -0.00, -1.00, 430.2, 102.0)"> </text><text xml:space="preserve" font-family="Helvetica-Light" font-size="37.2" fill="#D5D5D5" transform="matrix(1.00, 0.00, -0.00, -1.00, 440.5, 102.0)">u</text><text xml:space="preserve" font-family="Helvetica-Light" font-size="37.2" fill="#D5D5D5" transform="matrix(1.00, 0.00, -0.00, -1.00, 461.2, 102.0)">s</text><text xml:space="preserve" font-family="Helvetica-Light" font-size="37.2" fill="#D5D5D5" transform="matrix(1.00, 0.00, -0.00, -1.00, 479.8, 102.0)">e</text><text xml:space="preserve" font-family="Helvetica-Light" font-size="37.2" fill="#D5D5D5" transform="matrix(1.00, 0.00, -0.00, -1.00, 500.5, 102.0)">r</text><text xml:space="preserve" font-family="Helvetica-Light" font-size="37.2" fill="#D5D5D5" transform="matrix(1.00, 0.00, -0.00, -1.00, 512.9, 102.0)">s</text></g></svg>