<?xml version="1.0" encoding="UTF-8" standalone="no"?><svg xmlns="http://www.w3.org/2000/svg" xmlns:xlink="http://www.w3.org/1999/xlink" clip-rule="evenodd" stroke-miterlimit="4.00" viewBox="0 0 356 37"><desc>SVG generated by Keynote</desc><defs></defs><g transform="matrix(1.00, 0.00, -0.00, -1.00, 0.0, 37.0)"><text xml:space="preserve" font-family="Helvetica-Light" font-size="27.9" fill="#D5D5D5" transform="matrix(1.00, 0.00, -0.00, -1.00, 0.3, 12.9)">•</text><text xml:space="preserve" font-family="Helvetica-Light" font-size="37.2" fill="#D5D5D5" transform="matrix(1.00, 0.00, -0.00, -1.00, 35.0, 9.0)">&gt;</text><text xml:space="preserve" font-family="Helvetica-Light" font-size="37.2" fill="#D5D5D5" transform="matrix(1.00, 0.00, -0.00, -1.00, 59.6, 9.0)"> </text><text xml:space="preserve" font-family="Helvetica-Light" font-size="37.2" fill="#D5D5D5" transform="matrix(1.00, 0.00, -0.00, -1.00, 69.9, 9.0)">1</text><text xml:space="preserve" font-family="Helvetica-Light" font-size="37.2" fill="#D5D5D5" transform="matrix(1.00, 0.00, -0.00, -1.00, 90.6, 9.0)">0</text><text xml:space="preserve" font-family="Helvetica-Light" font-size="37.2" fill="#D5D5D5" transform="matrix(1.00, 0.00, -0.00, -1.00, 111.3, 9.0)">k</text><text xml:space="preserve" font-family="Helvetica-Light" font-size="37.2" fill="#D5D5D5" transform="matrix(1.00, 0.00, -0.00, -1.00, 130.0, 9.0)"> </text><text xml:space="preserve" font-family="Helvetica-Light" font-size="37.2" fill="#D5D5D5" transform="matrix(1.00, 0.00, -0.00, -1.00, 140.3, 9.0)">u</text><text xml:space="preserve" font-family="Helvetica-Light" font-size="37.2" fill="#D5D5D5" transform="matrix(1.00, 0.00, -0.00, -1.00, 161.0, 9.0)">n</text><text xml:space="preserve" font-family="Helvetica-Light" font-size="37.2" fill="#D5D5D5" transform="matrix(1.00, 0.00, -0.00, -1.00, 181.7, 9.0)">i</text><text xml:space="preserve" font-family="Helvetica-Light" font-size="37.2" fill="#D5D5D5" transform="matrix(1.00, 0.00, -0.00, -1.00, 190.0, 9.0)">q</text><text xml:space="preserve" font-family="Helvetica-Light" font-size="37.2" fill="#D5D5D5" transform="matrix(1.00, 0.00, -0.00, -1.00, 212.7, 9.0)">u</text><text xml:space="preserve" font-family="Helvetica-Light" font-size="37.2" fill="#D5D5D5" transform="matrix(1.00, 0.00, -0.00, -1.00, 233.5, 9.0)">e</text><text xml:space="preserve" font-family="Helvetica-Light" font-size="37.2" fill="#D5D5D5" transform="matrix(1.00, 0.00, -0.00, -1.00, 254.2, 9.0)"> </text><text xml:space="preserve" font-family="Helvetica-Light" font-size="37.2" fill="#D5D5D5" transform="matrix(1.00, 0.00, -0.00, -1.00, 264.5, 9.0)">u</text><text xml:space="preserve" font-family="Helvetica-Light" font-size="37.2" fill="#D5D5D5" transform="matrix(1.00, 0.00, -0.00, -1.00, 285.2, 9.0)">s</text><text xml:space="preserve" font-family="Helvetica-Light" font-size="37.2" fill="#D5D5D5" transform="matrix(1.00, 0.00, -0.00, -1.00, 303.8, 9.0)">e</text><text xml:space="preserve" font-family="Helvetica-Light" font-size="37.2" fill="#D5D5D5" transform="matrix(1.00, 0.00, -0.00, -1.00, 324.5, 9.0)">r</text><text xml:space="preserve" font-family="Helvetica-Light" font-size="37.2" fill="#D5D5D5" transform="matrix(1.00, 0.00, -0.00, -1.00, 336.9, 9.0)">s</text></g></svg>