<?xml version="1.0" encoding="UTF-8" standalone="no"?><svg xmlns="http://www.w3.org/2000/svg" xmlns:xlink="http://www.w3.org/1999/xlink" clip-rule="evenodd" stroke-miterlimit="4.00" viewBox="0 0 1024 768"><desc>SVG generated by Keynote</desc><defs></defs><g transform="matrix(1.00, 0.00, -0.00, -1.00, 0.0, 768.0)"><path d="M 0.0 768.0 L 1024.0 768.0 L 1024.0 0.0 L 0.0 0.0 Z M 0.0 768.0 " fill="#000000"></path><image xlink:href="2BB691CAF14C0F0819DAAE78D250E026.png" width="1280.00" height="720.00" transform="matrix(1.07, 0.00, -0.00, -1.07, -170.7, 773.2)"></image><image xlink:href="../../B1EDC609-44B6-4D00-BF00-3390ADA14DF4/assets/AA656720E8AD4BB1E0FC2E8862D6643F.png" width="5689.00" height="505.00" transform="matrix(0.24, 0.00, -0.00, -0.24, -170.7, 5.2)"></image><g opacity="0.50"><g><clipPath id="clip-42"><path d="M 0.0 768.0 L 140.0 768.0 L 140.0 0.0 L 0.0 0.0 Z M 0.0 768.0 "></path></clipPath><g clip-path="url(#clip-42)"><g><clipPath id="clip-43"><path d="M 0.0 0.0 L 142.0 0.0 L 142.0 768.0 L 0.0 768.0 Z M 0.0 0.0 "></path></clipPath><g clip-path="url(#clip-43)"><image xlink:href="../../3D0BF889-3BD6-425E-BF92-2C0E7C2FB87C/assets/71EBA73D8AF4BE780FE0EE06D6426920.jpeg" width="1024.00" height="768.00" transform="matrix(1.00, 0.00, -0.00, -1.00, 0.0, 768.0)"></image></g></g></g></g></g></g></svg>