<?xml version="1.0" encoding="UTF-8" standalone="no"?><svg xmlns="http://www.w3.org/2000/svg" xmlns:xlink="http://www.w3.org/1999/xlink" clip-rule="evenodd" stroke-miterlimit="4.00" viewBox="0 0 1024 768"><desc>SVG generated by Keynote</desc><defs></defs><g transform="matrix(1.00, 0.00, -0.00, -1.00, 0.0, 768.0)"><path d="M 0.0 768.0 L 1024.0 768.0 L 1024.0 0.0 L 0.0 0.0 Z M 0.0 768.0 " fill="#000000"></path><image xlink:href="BB998B79E8C5CB90D29C72994AC6445C.png" width="1280.00" height="720.00" transform="matrix(1.07, 0.00, -0.00, -1.07, -178.2, 770.5)"></image><image xlink:href="../../80A48986-5590-432E-80EC-3DC7453BE9D2/assets/9B30BB6CE5B79DCE8F7B967B2C495166.png" width="5689.00" height="505.00" transform="matrix(0.24, 0.00, -0.00, -0.24, -178.2, 2.5)"></image><g opacity="0.50"><g><clipPath id="clip-52"><path d="M 0.0 768.0 L 140.0 768.0 L 140.0 0.0 L 0.0 0.0 Z M 0.0 768.0 "></path></clipPath><g clip-path="url(#clip-52)"><g><clipPath id="clip-53"><path d="M 0.0 0.0 L 142.0 0.0 L 142.0 768.0 L 0.0 768.0 Z M 0.0 0.0 "></path></clipPath><g clip-path="url(#clip-53)"><image xlink:href="../../3D0BF889-3BD6-425E-BF92-2C0E7C2FB87C/assets/71EBA73D8AF4BE780FE0EE06D6426920.jpeg" width="1024.00" height="768.00" transform="matrix(1.00, 0.00, -0.00, -1.00, 0.0, 768.0)"></image></g></g></g></g></g></g></svg>