<?xml version="1.0" encoding="UTF-8" standalone="no"?><svg xmlns="http://www.w3.org/2000/svg" xmlns:xlink="http://www.w3.org/1999/xlink" clip-rule="evenodd" stroke-miterlimit="4.00" viewBox="0 0 1024 768"><desc>SVG generated by Keynote</desc><defs></defs><g transform="matrix(1.00, 0.00, -0.00, -1.00, 0.0, 768.0)"><path d="M 0.0 768.0 L 1024.0 768.0 L 1024.0 0.0 L 0.0 0.0 Z M 0.0 768.0 " fill="#000000"></path><g><clipPath id="clip-94"><path d="M 0.0 0.0 L 1024.0 0.0 L 1024.0 768.0 L 0.0 768.0 Z M 0.0 0.0 "></path></clipPath><g clip-path="url(#clip-94)"><image xlink:href="../../3D0BF889-3BD6-425E-BF92-2C0E7C2FB87C/assets/4D2E31804F8D4808E9A0A5013E6A5282.jpeg" width="1024.00" height="768.00" transform="matrix(1.00, 0.00, -0.00, -1.00, 0.0, 768.0)"></image></g></g><g><clipPath id="clip-95"><path d="M 139.0 12.0 L 1024.4 12.0 L 1024.4 756.0 L 139.0 756.0 Z M 139.0 12.0 "></path></clipPath><g clip-path="url(#clip-95)"><path d="M 140.0 755.0 L 1023.4 755.0 L 1023.4 13.0 L 140.0 13.0 Z M 140.0 755.0 " fill="#000000"></path></g></g><g opacity="0.30"><g><clipPath id="clip-96"><path d="M 0.0 768.0 L 1024.0 768.0 L 1024.0 0.0 L 0.0 0.0 Z M 0.0 768.0 "></path></clipPath><g clip-path="url(#clip-96)"><g><clipPath id="clip-97"><path d="M 0.0 0.0 L 1024.0 0.0 L 1024.0 768.0 L 0.0 768.0 Z M 0.0 0.0 "></path></clipPath><g clip-path="url(#clip-97)"><image xlink:href="../../3D0BF889-3BD6-425E-BF92-2C0E7C2FB87C/assets/3D65083C343F5647E5352EE81FA84963.jpeg" width="1024.00" height="768.00" transform="matrix(1.00, 0.00, -0.00, -1.00, 0.0, 768.0)"></image></g></g></g></g></g><text xml:space="preserve" font-family="HelveticaLTStd-Blk" font-weight="bold" font-size="72.0" fill="#D5D5D5" transform="matrix(1.00, 0.00, -0.00, -1.00, 152.0, 394.0)">C</text><text xml:space="preserve" font-family="HelveticaLTStd-Blk" font-weight="bold" font-size="72.0" fill="#D5D5D5" transform="matrix(1.00, 0.00, -0.00, -1.00, 208.0, 394.0)">l</text><text xml:space="preserve" font-family="HelveticaLTStd-Blk" font-weight="bold" font-size="72.0" fill="#D5D5D5" transform="matrix(1.00, 0.00, -0.00, -1.00, 232.0, 394.0)">e</text><text xml:space="preserve" font-family="HelveticaLTStd-Blk" font-weight="bold" font-size="72.0" fill="#D5D5D5" transform="matrix(1.00, 0.00, -0.00, -1.00, 280.0, 394.0)">v</text><text xml:space="preserve" font-family="HelveticaLTStd-Blk" font-weight="bold" font-size="72.0" fill="#D5D5D5" transform="matrix(1.00, 0.00, -0.00, -1.00, 324.0, 394.0)">e</text><text xml:space="preserve" font-family="HelveticaLTStd-Blk" font-weight="bold" font-size="72.0" fill="#D5D5D5" transform="matrix(1.00, 0.00, -0.00, -1.00, 372.0, 394.0)">l</text><text xml:space="preserve" font-family="HelveticaLTStd-Blk" font-weight="bold" font-size="72.0" fill="#D5D5D5" transform="matrix(1.00, 0.00, -0.00, -1.00, 396.0, 394.0)">a</text><text xml:space="preserve" font-family="HelveticaLTStd-Blk" font-weight="bold" font-size="72.0" fill="#D5D5D5" transform="matrix(1.00, 0.00, -0.00, -1.00, 444.0, 394.0)">n</text><text xml:space="preserve" font-family="HelveticaLTStd-Blk" font-weight="bold" font-size="72.0" fill="#D5D5D5" transform="matrix(1.00, 0.00, -0.00, -1.00, 492.1, 394.0)">d</text><text xml:space="preserve" font-family="HelveticaLTStd-Blk" font-weight="bold" font-size="72.0" fill="#D5D5D5" transform="matrix(1.00, 0.00, -0.00, -1.00, 540.1, 394.0)"> </text><text xml:space="preserve" font-family="HelveticaLTStd-Blk" font-weight="bold" font-size="72.0" fill="#D5D5D5" transform="matrix(1.00, 0.00, -0.00, -1.00, 564.1, 394.0)">M</text><text xml:space="preserve" font-family="HelveticaLTStd-Blk" font-weight="bold" font-size="72.0" fill="#D5D5D5" transform="matrix(1.00, 0.00, -0.00, -1.00, 632.0, 394.0)">e</text><text xml:space="preserve" font-family="HelveticaLTStd-Blk" font-weight="bold" font-size="72.0" fill="#D5D5D5" transform="matrix(1.00, 0.00, -0.00, -1.00, 680.0, 394.0)">t</text><text xml:space="preserve" font-family="HelveticaLTStd-Blk" font-weight="bold" font-size="72.0" fill="#D5D5D5" transform="matrix(1.00, 0.00, -0.00, -1.00, 712.0, 394.0)">r</text><text xml:space="preserve" font-family="HelveticaLTStd-Blk" font-weight="bold" font-size="72.0" fill="#D5D5D5" transform="matrix(1.00, 0.00, -0.00, -1.00, 742.7, 394.0)">o</text><text xml:space="preserve" font-family="HelveticaLTStd-Blk" font-weight="bold" font-size="72.0" fill="#D5D5D5" transform="matrix(1.00, 0.00, -0.00, -1.00, 790.7, 394.0)">p</text><text xml:space="preserve" font-family="HelveticaLTStd-Blk" font-weight="bold" font-size="72.0" fill="#D5D5D5" transform="matrix(1.00, 0.00, -0.00, -1.00, 838.7, 394.0)">a</text><text xml:space="preserve" font-family="HelveticaLTStd-Blk" font-weight="bold" font-size="72.0" fill="#D5D5D5" transform="matrix(1.00, 0.00, -0.00, -1.00, 886.8, 394.0)">r</text><text xml:space="preserve" font-family="HelveticaLTStd-Blk" font-weight="bold" font-size="72.0" fill="#D5D5D5" transform="matrix(1.00, 0.00, -0.00, -1.00, 918.7, 394.0)">k</text><text xml:space="preserve" font-family="HelveticaLTStd-Blk" font-weight="bold" font-size="72.0" fill="#D5D5D5" transform="matrix(1.00, 0.00, -0.00, -1.00, 966.8, 394.0)">s</text><text xml:space="preserve" font-family="HelveticaLTStd-Blk" font-weight="bold" font-size="72.0" fill="#D5D5D5" transform="matrix(1.00, 0.00, -0.00, -1.00, 1010.7, 394.0)"> </text><text xml:space="preserve" font-family="HelveticaLTStd-Blk" font-weight="bold" font-size="72.0" fill="#D5D5D5" transform="matrix(1.00, 0.00, -0.00, -1.00, 506.0, 308.0)">A</text><text xml:space="preserve" font-family="HelveticaLTStd-Blk" font-weight="bold" font-size="72.0" fill="#D5D5D5" transform="matrix(1.00, 0.00, -0.00, -1.00, 562.0, 308.0)">p</text><text xml:space="preserve" font-family="HelveticaLTStd-Blk" font-weight="bold" font-size="72.0" fill="#D5D5D5" transform="matrix(1.00, 0.00, -0.00, -1.00, 610.0, 308.0)">p</text><g><clipPath id="clip-98"><path d="M 704.0 23.4 L 1009.8 23.4 L 1009.8 105.2 L 704.0 105.2 Z M 704.0 23.4 "></path></clipPath><g clip-path="url(#clip-98)"><path d="M 705.0 38.4 L 705.0 90.2 C 705.0 98.0 711.2 104.2 719.0 104.2 L 994.8 104.2 C 1002.5 104.2 1008.8 98.0 1008.8 90.2 L 1008.8 38.4 C 1008.8 30.7 1002.5 24.4 994.8 24.4 L 719.0 24.4 C 711.2 24.4 705.0 30.7 705.0 38.4 Z M 705.0 38.4 " fill="#FEFFFF"></path></g></g><g><clipPath id="clip-99"><path d="M 720.1 33.7 L 994.1 33.7 L 994.1 94.7 L 720.1 94.7 Z M 720.1 33.7 "></path></clipPath><g clip-path="url(#clip-99)"><image xlink:href="../../3D0BF889-3BD6-425E-BF92-2C0E7C2FB87C/assets/46975168F00D3F26D0CA1DB23FF666A9.png" width="274.00" height="61.00" transform="matrix(1.00, 0.00, -0.00, -1.00, 720.0, 95.0)"></image></g></g><g><clipPath id="clip-100"><path d="M 732.0 138.0 L 1006.0 138.0 L 1006.0 199.0 L 732.0 199.0 Z M 732.0 138.0 "></path></clipPath><g clip-path="url(#clip-100)"><path d="M 780.2 173.8 C 781.5 173.8 781.1 169.7 786.0 169.7 C 787.7 169.7 789.2 170.8 789.2 172.9 C 789.2 177.4 779.4 175.8 779.4 182.7 C 779.4 186.1 782.6 188.3 785.7 188.3 C 786.9 188.3 787.7 188.0 788.4 187.7 C 789.0 187.4 789.5 187.1 789.8 187.1 C 790.1 187.1 790.3 187.4 790.4 187.7 L 791.7 187.7 L 791.7 182.9 L 790.8 182.9 C 788.9 182.9 790.1 186.8 786.2 186.8 C 784.7 186.8 783.4 185.9 783.4 184.3 C 783.4 180.1 793.2 182.0 793.2 174.9 C 793.2 170.9 789.5 168.2 785.8 168.2 C 783.4 168.2 782.1 169.3 781.4 169.3 C 781.0 169.3 780.9 169.0 780.9 168.7 L 779.2 168.7 L 779.2 173.8 L 780.2 173.8 " fill="#1A1918"></path><path d="M 798.7 175.2 C 798.7 173.5 799.0 169.6 801.4 169.6 C 803.8 169.6 803.9 173.2 803.9 175.0 C 803.9 176.7 803.7 181.0 801.3 181.0 C 798.9 181.0 798.7 176.9 798.7 175.2 Z M 808.5 175.2 C 808.5 171.1 805.3 168.3 801.3 168.3 C 797.2 168.3 794.1 171.3 794.1 175.4 C 794.1 179.6 797.3 182.3 801.4 182.3 C 805.6 182.3 808.5 179.5 808.5 175.2 " fill="#1A1918"></path><path d="M 818.1 169.9 C 817.1 168.7 815.7 168.3 814.2 168.3 C 811.2 168.3 810.1 170.4 810.1 173.1 L 810.1 179.1 C 810.1 181.2 808.6 179.7 808.6 181.4 L 808.6 181.9 L 814.4 182.1 L 814.4 172.9 C 814.4 171.8 814.6 170.2 816.1 170.2 C 816.6 170.2 817.7 170.6 818.0 171.2 L 818.0 179.1 C 818.0 181.2 816.5 179.7 816.5 181.4 L 816.5 181.9 L 822.3 182.1 L 822.3 171.5 C 822.3 169.4 823.8 170.9 823.8 169.2 L 823.8 168.7 L 818.1 168.7 L 818.1 169.9 " fill="#1A1918"></path><path d="M 832.1 181.9 L 832.1 180.1 L 829.6 180.1 L 829.6 172.3 C 829.6 171.4 829.6 170.2 830.9 170.2 C 831.3 170.2 831.6 170.4 832.0 170.7 L 832.7 169.8 C 831.8 168.7 830.6 168.3 829.2 168.3 C 826.2 168.3 825.3 170.1 825.3 172.1 L 825.3 180.1 L 823.7 180.1 L 823.7 180.5 C 823.7 182.3 825.3 180.7 825.3 183.5 L 825.3 184.3 C 825.3 185.5 825.5 185.6 826.9 185.6 L 829.6 185.8 L 829.6 181.9 L 832.1 181.9 " fill="#1A1918"></path><path d="M 832.6 168.7 L 832.6 169.1 C 832.6 170.9 834.1 169.4 834.1 171.5 L 834.1 185.0 C 834.1 187.2 832.6 185.6 832.6 187.4 L 832.6 187.9 L 838.4 188.0 L 838.4 180.9 C 839.6 181.8 840.8 182.3 842.3 182.3 C 845.2 182.3 846.7 180.9 846.7 178.2 L 846.7 171.5 C 846.7 169.4 848.2 170.9 848.2 169.1 L 848.2 168.7 L 841.0 168.7 L 841.0 169.1 C 841.0 170.9 842.4 169.4 842.4 171.5 L 842.4 177.6 C 842.4 178.9 842.2 180.4 840.5 180.4 C 839.8 180.4 838.9 179.9 838.4 179.3 L 838.4 171.5 C 838.4 169.4 839.9 170.9 839.9 169.1 L 839.9 168.7 L 832.6 168.7 " fill="#1A1918"></path><path d="M 855.3 168.7 L 852.9 168.7 L 848.9 179.6 C 848.2 181.5 847.4 179.7 847.4 181.5 L 847.4 181.9 L 855.1 181.9 L 855.1 181.5 C 855.1 180.1 853.5 181.1 853.5 179.8 C 853.5 179.4 853.7 179.0 853.8 178.5 L 855.5 174.2 L 858.2 181.9 L 861.1 181.9 L 864.0 174.0 L 865.5 178.7 C 865.6 179.1 865.8 179.5 865.8 179.9 C 865.8 181.0 864.2 180.0 864.2 181.5 L 864.2 181.9 L 869.2 181.9 L 869.2 181.5 C 869.2 179.8 868.3 181.6 867.4 179.0 L 863.9 168.7 L 861.3 168.7 L 858.3 177.1 L 855.3 168.7 " fill="#1A1918"></path><path d="M 877.1 177.0 C 877.1 178.5 876.8 181.0 874.9 181.0 C 873.0 181.0 872.7 178.5 872.6 177.0 L 877.1 177.0 Z M 872.6 175.6 L 872.6 175.3 C 872.6 172.8 873.6 170.0 876.5 170.0 C 878.2 170.0 879.3 170.9 880.3 172.0 L 881.4 171.1 C 880.0 169.2 877.9 168.3 875.6 168.3 C 871.3 168.3 868.1 171.4 868.1 175.7 C 868.1 179.5 870.9 182.3 874.7 182.3 C 878.9 182.3 881.2 179.7 881.3 175.6 L 872.6 175.6 " fill="#1A1918"></path><path d="M 885.9 170.5 C 885.9 169.9 887.2 169.7 887.6 169.7 C 888.7 169.7 890.2 170.2 890.2 171.6 C 890.2 174.1 882.8 173.2 882.8 177.8 C 882.8 181.0 886.1 182.3 888.8 182.3 C 890.4 182.3 893.3 181.8 893.3 179.7 C 893.3 178.7 892.4 178.0 891.4 178.0 C 890.6 178.0 889.6 178.5 889.6 179.5 C 889.6 179.7 889.8 180.1 889.8 180.3 C 889.8 180.8 888.9 180.9 888.6 180.9 C 887.8 180.9 886.6 180.4 886.6 179.4 C 886.6 176.9 894.0 178.1 894.0 173.2 C 894.0 169.8 890.5 168.3 887.6 168.3 C 885.6 168.3 882.2 168.9 882.2 171.4 C 882.2 172.5 883.1 173.2 884.1 173.2 C 885.2 173.2 886.2 172.5 886.2 171.4 C 886.2 171.2 886.1 171.0 886.0 170.8 C 886.0 170.7 885.9 170.6 885.9 170.5 " fill="#1A1918"></path><path d="M 902.8 181.9 L 902.8 180.1 L 900.3 180.1 L 900.3 172.3 C 900.3 171.4 900.3 170.2 901.6 170.2 C 902.1 170.2 902.4 170.4 902.7 170.7 L 903.4 169.8 C 902.5 168.7 901.3 168.3 900.0 168.3 C 896.9 168.3 896.0 170.1 896.0 172.1 L 896.0 180.1 L 894.4 180.1 L 894.4 180.5 C 894.4 182.3 896.0 180.7 896.0 183.5 L 896.0 184.3 C 896.0 185.5 896.2 185.6 897.6 185.6 L 900.3 185.8 L 900.3 181.9 L 902.8 181.9 " fill="#1A1918"></path><path d="M 926.0 182.1 C 923.5 182.1 924.8 186.8 920.1 186.8 C 915.8 186.8 914.8 182.1 914.8 178.6 C 914.8 175.0 915.7 169.5 920.3 169.5 C 922.5 169.5 923.2 170.6 923.2 172.4 L 923.2 174.2 C 923.2 177.6 921.2 175.3 921.2 177.5 L 921.2 177.9 L 928.3 177.9 C 927.6 177.3 927.7 176.5 927.7 175.8 L 927.7 172.8 C 927.7 171.9 927.7 171.5 928.7 171.4 L 928.7 170.9 C 928.7 169.0 922.5 168.2 920.4 168.2 C 914.0 168.2 909.6 171.6 909.6 178.2 C 909.6 183.7 913.5 188.3 919.2 188.3 C 922.4 188.3 924.1 186.9 924.7 186.9 C 925.1 186.9 925.2 187.2 925.4 187.5 L 926.8 187.5 L 926.8 182.1 L 926.0 182.1 " fill="#1A1918"></path><path d="M 938.0 177.0 C 938.0 178.5 937.7 181.0 935.8 181.0 C 933.9 181.0 933.6 178.5 933.6 177.0 L 938.0 177.0 Z M 933.6 175.6 L 933.6 175.3 C 933.6 172.8 934.5 170.0 937.5 170.0 C 939.2 170.0 940.2 170.9 941.3 172.0 L 942.3 171.1 C 941.0 169.2 938.8 168.3 936.5 168.3 C 932.3 168.3 929.1 171.4 929.1 175.7 C 929.1 179.5 931.9 182.3 935.6 182.3 C 939.8 182.3 942.2 179.7 942.2 175.6 L 933.6 175.6 " fill="#1A1918"></path><path d="M 948.1 182.1 L 948.1 180.8 C 949.4 181.9 950.4 182.3 952.1 182.3 C 955.4 182.3 956.6 180.6 956.6 177.9 L 956.6 171.5 C 956.6 169.4 958.1 170.9 958.1 169.1 L 958.1 168.7 L 950.9 168.7 L 950.9 169.1 C 950.9 170.9 952.3 169.4 952.3 171.5 L 952.3 178.2 C 952.3 179.2 952.1 180.4 950.5 180.4 C 949.8 180.4 948.8 180.0 948.4 179.4 L 948.4 171.5 C 948.4 169.4 950.0 171.0 950.0 169.1 L 950.0 168.7 L 942.5 168.7 L 942.5 169.1 C 942.5 170.9 944.1 169.4 944.1 171.5 L 944.1 179.1 C 944.1 181.2 942.5 179.7 942.5 181.5 L 942.5 181.9 L 948.1 182.1 " fill="#1A1918"></path><path d="M 966.8 177.0 C 966.9 178.5 966.5 181.0 964.7 181.0 C 962.8 181.0 962.4 178.5 962.4 177.0 L 966.8 177.0 Z M 962.4 175.6 L 962.4 175.3 C 962.4 172.8 963.3 170.0 966.3 170.0 C 968.0 170.0 969.0 170.9 970.1 172.0 L 971.1 171.1 C 969.8 169.2 967.7 168.3 965.4 168.3 C 961.1 168.3 957.9 171.4 957.9 175.7 C 957.9 179.5 960.7 182.3 964.5 182.3 C 968.6 182.3 971.0 179.7 971.0 175.6 L 962.4 175.6 " fill="#1A1918"></path><path d="M 977.4 182.1 L 977.4 178.1 L 977.5 178.1 C 978.3 179.8 979.4 182.3 981.7 182.3 C 982.9 182.3 983.9 181.4 983.9 180.1 C 983.9 179.1 983.1 178.0 982.0 178.0 C 981.4 178.0 981.1 178.3 980.8 178.6 C 980.5 178.8 980.3 179.1 980.0 179.1 C 978.6 179.1 977.8 174.7 977.8 174.2 L 977.8 171.5 C 977.8 169.4 979.5 170.9 979.5 169.1 L 979.5 168.7 L 971.9 168.7 L 971.9 169.1 C 971.9 170.9 973.5 169.4 973.5 171.5 L 973.5 179.1 C 973.5 181.2 971.9 179.7 971.9 181.5 L 971.9 181.9 L 977.4 182.1 " fill="#1A1918"></path><path d="M 992.0 176.0 C 990.0 175.8 988.3 174.5 988.3 172.4 C 988.3 171.5 988.7 170.1 989.8 170.1 C 991.7 170.1 992.0 172.6 992.0 173.9 L 992.0 176.0 Z M 989.8 181.0 C 989.2 181.0 988.5 180.8 988.5 180.1 C 988.5 179.8 988.6 179.5 988.6 179.2 C 988.6 178.1 987.7 177.5 986.7 177.5 C 985.7 177.5 984.7 178.2 984.7 179.3 C 984.7 181.6 988.0 182.3 990.0 182.3 C 990.8 182.3 996.3 182.3 996.3 176.5 L 996.3 172.8 C 996.3 172.4 996.0 170.3 997.0 170.3 C 997.2 170.3 997.5 170.5 997.7 170.7 L 997.8 170.5 C 997.9 170.3 998.2 170.1 998.2 169.9 C 998.2 169.1 996.6 168.3 995.8 168.3 C 994.1 168.3 993.3 169.1 992.6 170.4 C 991.4 168.9 990.2 168.3 988.3 168.3 C 986.0 168.3 983.8 169.6 983.8 172.2 C 983.8 176.2 989.5 176.8 991.9 177.3 C 991.9 178.7 991.6 181.0 989.8 181.0 " fill="#1A1918"></path></g></g><g><clipPath id="clip-101"><path d="M 732.0 138.0 L 1006.0 138.0 L 1006.0 199.0 L 732.0 199.0 Z M 732.0 138.0 "></path></clipPath><g clip-path="url(#clip-101)"><path d="M 998.6 168.7 L 998.6 169.1 C 998.6 170.9 1000.2 169.4 1000.2 171.5 L 1000.2 185.0 C 1000.2 187.2 998.6 185.6 998.6 187.4 L 998.6 187.9 L 1004.5 188.0 L 1004.5 171.5 C 1004.5 169.4 1006.0 170.9 1006.0 169.1 L 1006.0 168.7 L 998.6 168.7 " fill="#1A1918"></path><path d="M 763.7 188.6 C 763.5 188.3 763.2 188.2 763.0 188.3 C 762.4 188.5 761.7 188.7 761.4 189.4 C 761.0 190.2 761.6 190.8 762.0 191.4 C 762.5 191.7 763.0 191.3 763.4 191.3 C 763.6 191.1 764.0 191.0 764.1 190.7 C 764.3 190.0 763.4 189.9 763.6 189.3 C 763.7 189.1 763.9 188.8 763.7 188.6 Z M 762.9 172.5 C 762.9 172.4 762.8 172.3 762.7 172.3 C 762.5 172.3 762.4 172.3 762.4 172.5 C 762.4 172.6 762.5 172.7 762.6 172.7 C 762.7 172.8 762.9 172.6 762.9 172.5 Z M 762.3 182.7 C 762.1 183.0 762.3 183.5 762.2 183.9 C 762.2 184.1 762.1 184.4 762.2 184.6 C 762.4 184.7 762.5 184.7 762.6 184.8 C 762.8 184.7 763.0 184.7 763.1 184.5 C 763.2 184.0 763.2 183.5 763.5 183.1 C 763.6 182.8 763.2 182.7 763.0 182.6 C 762.8 182.5 762.5 182.5 762.3 182.7 Z M 763.9 170.2 C 764.5 170.3 764.6 169.7 764.9 169.4 C 764.9 169.2 764.8 169.0 764.6 169.0 C 763.7 168.8 762.6 169.1 762.0 168.3 C 761.3 168.2 760.9 167.3 760.2 167.6 C 759.9 168.0 760.1 168.6 759.8 169.0 C 759.8 169.6 760.4 169.7 760.8 169.9 C 761.4 170.2 761.9 169.6 762.6 169.9 C 763.0 169.9 763.6 169.9 763.9 170.2 Z M 764.8 176.2 C 764.9 176.4 764.9 176.5 765.1 176.6 C 765.5 176.5 765.8 176.2 766.3 176.4 C 766.4 176.3 766.4 176.1 766.4 176.0 C 766.3 175.9 766.1 175.7 766.2 175.5 C 766.4 175.3 766.6 175.0 766.5 174.7 C 766.2 174.3 765.7 174.7 765.4 174.8 C 764.9 174.9 764.2 174.6 764.0 175.1 C 763.9 175.8 764.8 175.6 764.8 176.2 Z M 767.0 177.7 C 767.9 177.8 768.6 176.5 769.6 177.3 C 769.7 177.4 769.9 177.3 770.0 177.1 C 770.0 176.6 770.2 176.1 770.0 175.6 C 769.4 175.2 769.1 176.1 768.6 175.7 C 768.3 175.6 768.0 175.5 767.8 175.6 C 767.3 176.0 767.7 176.7 767.1 176.9 C 766.9 177.0 766.8 177.1 766.7 177.2 C 766.6 177.4 766.8 177.6 767.0 177.7 Z M 770.4 168.8 C 770.6 168.6 770.6 168.3 770.5 168.1 C 770.2 167.7 769.7 168.1 769.3 167.9 C 769.0 167.7 768.6 167.7 768.2 167.8 C 767.6 168.0 768.2 168.8 767.6 169.1 C 767.4 169.2 767.0 169.3 767.0 169.6 C 767.2 170.0 767.1 170.5 767.5 170.7 C 768.0 170.7 768.6 170.2 768.9 170.7 C 768.9 171.3 768.0 171.1 768.2 171.7 C 768.6 172.1 769.2 172.2 769.6 171.8 C 769.9 171.3 770.3 170.7 769.8 170.1 C 769.5 169.9 768.8 170.0 768.7 169.5 C 768.7 169.2 768.9 169.0 769.1 168.9 C 769.5 168.8 770.1 169.1 770.4 168.8 Z M 766.9 172.2 C 766.9 172.4 767.2 172.5 767.3 172.5 C 767.5 172.6 767.7 172.5 767.8 172.3 C 767.9 172.0 767.5 171.8 767.4 171.5 C 767.3 171.5 767.1 171.4 766.9 171.5 C 766.8 171.7 766.8 172.0 766.9 172.2 Z M 767.0 167.0 C 766.8 166.8 766.6 166.6 766.3 166.6 C 765.6 166.6 764.9 167.9 764.3 166.9 C 764.3 166.7 764.3 166.4 764.1 166.3 C 763.6 166.3 763.8 166.9 763.3 167.0 C 763.0 167.1 762.7 167.0 762.5 167.3 C 762.5 167.8 763.0 167.9 763.3 168.1 C 763.6 168.6 764.1 168.7 764.5 168.6 C 765.1 168.4 765.4 167.5 766.0 168.0 C 766.2 168.2 766.4 168.3 766.8 168.3 C 767.0 168.3 767.2 168.0 767.2 167.8 C 767.2 167.5 767.2 167.2 767.0 167.0 Z M 761.7 165.6 C 761.6 165.4 761.3 165.4 761.1 165.4 C 760.9 165.4 760.8 165.5 760.8 165.7 C 760.7 165.8 760.8 166.1 761.0 166.2 C 761.2 166.2 761.5 166.2 761.7 166.0 C 761.8 165.9 761.8 165.8 761.7 165.6 Z M 759.0 178.8 C 758.7 178.9 758.7 179.2 758.7 179.5 C 758.8 179.7 758.9 180.0 759.2 180.0 C 759.7 179.9 760.3 180.0 760.5 179.5 C 760.5 179.3 760.4 179.0 760.3 178.9 C 759.9 178.6 759.4 178.7 759.0 178.8 Z M 759.1 176.8 C 759.0 176.6 758.7 176.5 758.5 176.5 C 758.3 176.5 758.1 176.6 758.1 176.7 C 758.0 177.0 758.1 177.2 758.3 177.3 C 758.5 177.4 758.9 177.4 759.1 177.2 C 759.2 177.1 759.2 176.9 759.1 176.8 Z M 758.3 172.1 C 758.2 171.5 758.9 171.1 758.6 170.5 C 758.2 170.2 758.3 169.5 757.8 169.3 C 757.5 169.3 757.2 169.2 757.1 169.5 C 757.0 169.9 757.5 170.2 757.1 170.4 C 756.6 170.3 756.2 169.8 756.1 169.3 C 756.0 169.1 755.7 169.1 755.5 169.2 C 755.3 169.2 755.1 169.5 755.0 169.7 C 755.1 170.1 755.0 170.5 754.9 170.9 C 754.9 171.1 755.1 171.2 755.2 171.3 C 755.8 171.5 756.8 170.9 757.2 171.7 C 757.3 171.9 757.1 172.2 756.9 172.3 C 756.4 172.5 756.2 172.0 755.9 171.8 C 755.4 171.7 754.8 171.6 754.4 171.9 C 754.3 172.0 754.3 172.2 754.4 172.3 C 754.7 172.6 755.4 172.1 755.6 172.7 C 755.6 173.1 756.1 173.2 756.4 173.3 C 757.1 173.2 757.9 173.2 758.7 173.2 C 758.8 173.2 759.0 173.2 759.1 173.0 C 759.2 172.4 758.5 172.6 758.3 172.1 Z M 754.4 169.1 C 754.2 168.9 753.9 168.7 753.6 168.9 C 753.3 169.0 753.4 169.4 753.4 169.7 C 753.5 169.9 753.6 170.3 754.0 170.3 C 754.2 170.4 754.3 170.2 754.4 170.0 C 754.6 169.8 754.5 169.4 754.4 169.1 Z M 753.1 175.5 C 753.0 175.5 752.9 175.6 752.9 175.7 C 752.9 175.8 753.0 175.9 753.1 175.9 C 753.2 175.9 753.3 175.8 753.3 175.7 C 753.4 175.6 753.3 175.5 753.1 175.5 Z M 752.6 196.4 C 752.4 196.4 752.3 196.4 752.2 196.5 C 752.2 196.6 752.2 196.8 752.4 196.8 C 752.5 196.8 752.7 196.8 752.8 196.6 C 752.8 196.5 752.7 196.4 752.6 196.4 Z M 752.3 194.0 C 752.2 194.0 752.1 194.1 752.1 194.2 C 752.1 194.3 752.2 194.4 752.3 194.4 C 752.4 194.4 752.5 194.4 752.5 194.3 C 752.5 194.2 752.5 194.0 752.3 194.0 Z M 751.9 189.2 C 751.8 189.1 751.7 189.1 751.6 189.1 C 751.6 189.2 751.6 189.2 751.6 189.3 C 751.7 189.4 752.0 189.3 751.9 189.2 Z M 751.6 175.1 C 751.2 174.9 750.9 175.4 750.6 175.6 C 750.4 176.0 750.3 176.4 750.3 176.8 C 750.4 176.9 750.5 177.0 750.6 177.0 C 751.1 177.0 751.5 176.5 751.7 176.1 C 751.8 175.8 751.9 175.4 751.6 175.1 Z M 749.8 168.8 C 749.6 168.5 749.3 168.5 749.0 168.5 C 748.8 168.5 748.6 168.6 748.4 168.9 C 747.9 169.5 748.6 170.7 747.5 170.9 C 747.3 170.9 747.1 171.0 747.0 171.3 C 747.0 171.4 746.9 171.6 747.0 171.7 C 747.6 172.1 748.1 171.6 748.6 171.7 L 748.9 171.5 C 749.4 171.3 749.0 170.6 749.5 170.4 C 749.9 170.3 750.5 170.3 750.6 169.8 C 750.7 169.2 750.0 169.2 749.8 168.8 Z M 750.3 167.7 C 750.2 167.6 749.9 167.6 749.9 167.9 C 749.8 168.0 749.9 168.2 750.1 168.3 C 750.3 168.3 750.5 168.3 750.6 168.1 C 750.6 167.9 750.5 167.7 750.3 167.7 Z M 747.6 167.5 C 747.5 167.4 747.3 167.3 747.1 167.4 C 746.9 167.4 746.9 167.6 746.8 167.8 C 746.8 168.0 746.9 168.1 747.0 168.2 C 747.3 168.2 747.5 168.1 747.6 167.9 C 747.6 167.8 747.7 167.6 747.6 167.5 Z M 747.1 193.7 C 747.2 193.7 747.4 193.7 747.4 193.6 C 747.4 193.5 747.3 193.4 747.2 193.4 C 747.1 193.4 746.9 193.3 746.8 193.5 C 746.8 193.7 747.0 193.7 747.1 193.7 Z M 747.7 173.3 C 748.0 173.3 748.2 173.3 748.2 173.1 C 748.3 172.9 748.1 172.7 748.0 172.7 C 747.8 172.6 747.5 172.7 747.4 172.9 C 747.4 173.1 747.5 173.2 747.7 173.3 Z M 748.7 179.0 C 748.4 178.9 748.1 178.9 747.9 179.1 C 747.8 179.2 747.7 179.4 747.8 179.5 C 747.9 179.7 748.1 179.8 748.3 179.8 C 748.6 179.8 748.9 179.8 748.9 179.5 C 749.0 179.3 748.9 179.0 748.7 179.0 Z M 747.8 191.9 C 747.9 192.0 748.1 192.0 748.3 191.9 C 748.6 191.8 748.9 191.5 749.0 191.2 C 749.0 190.9 749.1 190.6 748.9 190.4 C 748.7 190.2 748.2 189.9 748.5 189.5 C 748.6 189.4 748.6 189.3 748.6 189.2 C 748.2 189.0 748.2 189.5 748.0 189.7 C 747.5 190.2 748.2 190.9 747.8 191.4 C 747.7 191.6 747.7 191.8 747.8 191.9 Z M 749.7 187.0 C 749.7 186.8 749.6 186.6 749.4 186.5 C 749.2 186.5 749.0 186.6 749.0 186.8 C 748.9 186.9 749.0 187.1 749.1 187.2 C 749.3 187.4 749.6 187.3 749.7 187.0 Z M 750.3 174.5 C 750.3 174.4 750.3 174.3 750.2 174.2 C 749.9 173.9 749.5 173.9 749.2 174.0 C 748.9 174.2 749.0 174.5 749.0 174.8 C 749.2 175.0 749.2 175.3 749.5 175.4 C 750.0 175.4 749.7 174.6 750.3 174.5 Z M 750.9 193.5 C 751.0 193.6 751.1 193.6 751.2 193.7 C 751.4 193.6 751.7 193.6 751.8 193.4 C 752.0 192.9 751.4 192.6 751.5 192.1 C 751.7 191.8 752.0 191.5 751.8 191.1 C 751.6 190.9 751.4 190.8 751.2 190.9 C 750.9 190.9 750.6 191.1 750.4 191.4 C 750.3 192.2 750.5 192.9 750.9 193.5 Z M 754.9 189.9 C 755.2 190.1 755.7 190.1 755.8 189.7 C 755.8 189.4 755.9 188.9 755.6 188.8 C 755.3 188.6 754.8 188.6 754.5 188.7 C 754.3 188.9 753.9 189.0 753.9 189.3 C 753.8 189.9 754.6 189.7 754.9 189.9 Z M 754.9 191.0 C 755.1 191.0 755.2 191.0 755.3 190.9 C 755.3 190.8 755.2 190.7 755.1 190.7 C 755.0 190.6 754.8 190.7 754.8 190.8 C 754.8 190.9 754.9 191.0 754.9 191.0 Z M 755.0 192.6 C 755.2 192.6 755.3 192.5 755.3 192.4 C 755.3 192.3 755.4 192.1 755.3 192.0 C 755.1 192.0 754.9 192.0 754.8 192.2 C 754.8 192.4 754.9 192.5 755.0 192.6 Z M 755.4 194.5 C 755.6 194.6 755.8 194.4 755.9 194.3 C 755.9 194.0 756.1 193.6 755.9 193.4 C 755.8 193.2 755.5 193.2 755.3 193.2 C 755.2 193.2 755.0 193.4 755.0 193.5 C 755.0 193.9 755.1 194.3 755.4 194.5 Z M 756.3 175.3 C 756.4 175.3 756.6 175.4 756.6 175.2 C 756.7 175.1 756.6 174.9 756.4 174.9 C 756.3 174.9 756.2 175.0 756.2 175.1 C 756.2 175.2 756.2 175.3 756.3 175.3 Z M 756.7 177.1 C 756.7 177.2 756.8 177.3 757.0 177.3 C 757.2 177.4 757.3 177.3 757.5 177.2 C 757.5 177.1 757.5 176.8 757.4 176.7 C 757.3 176.6 757.0 176.5 756.8 176.6 C 756.6 176.7 756.6 176.9 756.7 177.1 Z M 757.6 184.1 C 757.7 184.1 757.8 184.1 757.9 184.0 C 757.9 183.8 757.8 183.7 757.7 183.7 C 757.5 183.7 757.4 183.8 757.4 183.9 C 757.4 184.0 757.5 184.0 757.6 184.1 Z M 758.0 173.9 C 758.1 173.9 758.3 173.9 758.2 173.7 C 758.2 173.7 758.1 173.7 758.0 173.7 C 758.0 173.7 758.0 173.9 758.0 173.9 Z M 758.3 188.1 C 758.8 188.3 759.3 187.9 759.7 188.5 C 760.3 188.7 760.0 189.8 760.8 189.6 L 760.9 189.4 C 761.1 189.0 760.8 188.6 760.9 188.1 C 760.8 187.8 760.5 187.6 760.3 187.5 C 759.8 187.1 759.5 187.9 759.1 187.6 C 758.9 187.3 758.6 186.9 758.3 186.9 C 758.1 186.9 757.9 186.8 757.8 187.0 C 757.9 187.4 757.9 187.9 758.3 188.1 Z M 758.6 195.4 C 758.7 195.5 758.9 195.5 759.0 195.5 C 759.2 195.5 759.5 195.4 759.7 195.1 C 759.7 194.9 759.7 194.7 759.6 194.5 C 759.4 194.3 758.9 194.2 758.6 194.3 C 758.3 194.7 758.6 195.0 758.6 195.4 Z M 760.7 191.9 C 760.8 192.0 761.2 191.9 761.2 191.7 C 761.2 191.5 761.0 191.3 760.9 191.3 C 760.8 191.3 760.6 191.3 760.5 191.5 C 760.5 191.6 760.6 191.7 760.7 191.9 Z M 760.6 180.9 C 760.3 180.7 759.9 180.6 759.6 180.6 C 759.5 180.8 759.5 181.0 759.6 181.2 C 759.8 181.5 760.3 181.5 760.6 181.2 C 760.7 181.1 760.7 181.0 760.6 180.9 Z M 761.5 180.9 C 761.5 181.0 761.6 181.2 761.7 181.2 C 761.9 181.2 762.0 181.2 762.1 181.0 C 762.2 180.8 762.0 180.6 761.8 180.6 C 761.7 180.6 761.5 180.7 761.5 180.9 Z M 761.5 177.3 C 761.9 177.3 762.0 176.9 762.1 176.6 L 762.1 176.4 C 761.5 176.1 761.1 175.3 760.4 175.6 C 760.1 175.8 760.3 176.1 760.3 176.4 C 760.6 176.8 761.2 176.9 761.5 177.3 Z M 746.0 167.5 C 746.0 167.6 745.9 167.7 746.0 167.8 C 746.2 167.8 746.3 167.8 746.3 167.6 C 746.3 167.5 746.1 167.5 746.0 167.5 Z M 745.6 185.7 C 745.4 185.7 745.2 185.7 745.1 185.9 C 745.1 186.0 745.1 186.3 745.3 186.3 C 745.5 186.3 745.8 186.3 745.8 186.1 C 745.9 185.9 745.8 185.8 745.6 185.7 Z M 744.1 176.9 C 743.9 176.8 743.8 176.9 743.7 177.0 C 743.4 177.4 744.0 177.7 744.2 178.0 C 744.4 178.2 744.8 178.2 744.9 177.9 C 744.8 177.5 744.5 177.0 744.1 176.9 Z M 743.5 173.8 C 743.2 173.5 742.8 173.7 742.5 173.7 C 742.2 173.8 742.2 174.1 742.3 174.3 C 742.4 174.4 742.5 174.5 742.7 174.5 C 742.9 174.6 743.1 174.5 743.3 174.4 C 743.5 174.2 743.6 174.0 743.5 173.8 Z M 740.4 183.2 C 740.1 183.5 739.6 183.5 739.5 184.0 C 739.4 184.1 739.5 184.3 739.6 184.4 C 740.0 184.7 740.6 184.5 741.1 184.5 L 742.0 184.4 C 742.2 184.3 742.3 184.1 742.4 184.0 C 742.4 183.8 742.3 183.6 742.1 183.5 C 741.6 183.3 741.0 182.8 740.4 183.2 Z M 741.7 170.1 C 741.6 170.1 741.6 170.2 741.5 170.2 C 741.5 170.3 741.5 170.4 741.6 170.4 C 741.7 170.4 741.9 170.4 741.9 170.3 C 741.8 170.2 741.8 170.1 741.7 170.1 Z M 741.2 167.8 C 741.2 167.7 741.0 167.8 741.0 167.8 C 740.9 167.8 740.9 167.9 740.9 168.0 C 741.0 168.1 741.4 168.0 741.2 167.8 Z M 740.9 166.1 C 740.8 166.1 740.6 166.2 740.5 166.3 C 740.5 166.5 740.6 166.6 740.7 166.7 C 740.9 166.7 741.1 166.6 741.2 166.4 C 741.3 166.3 741.0 166.2 740.9 166.1 Z M 740.1 179.6 C 740.1 179.8 740.1 179.9 740.3 180.0 C 740.4 180.0 740.6 180.0 740.6 179.8 C 740.7 179.7 740.6 179.5 740.4 179.5 C 740.3 179.4 740.1 179.5 740.1 179.6 Z M 739.6 182.0 C 739.4 182.1 739.4 182.4 739.5 182.6 C 739.7 182.8 740.1 182.8 740.4 182.6 C 740.5 182.5 740.5 182.3 740.4 182.2 C 740.2 181.9 739.9 181.9 739.6 182.0 Z M 738.9 185.8 C 738.9 186.0 739.0 186.2 739.1 186.2 C 739.4 186.3 739.8 186.3 739.9 186.0 C 740.1 185.6 739.5 185.4 739.6 185.1 C 739.5 185.0 739.4 185.0 739.3 185.0 C 739.2 185.3 739.1 185.6 738.9 185.8 Z M 738.1 186.6 C 737.6 186.9 738.0 187.5 738.1 187.8 C 737.9 188.3 738.1 189.0 737.4 189.2 C 737.3 189.4 737.4 189.7 737.5 189.8 C 737.7 190.3 738.3 190.2 738.7 190.2 C 738.9 190.1 739.1 190.0 739.2 189.8 C 739.2 189.6 739.4 189.5 739.3 189.3 C 739.0 189.0 738.5 189.3 738.3 189.0 C 738.5 188.6 738.9 188.4 739.3 188.1 C 739.5 188.0 739.8 188.0 739.8 187.7 C 739.8 187.1 739.1 186.9 738.8 186.6 C 738.6 186.5 738.3 186.4 738.1 186.6 Z M 739.9 194.0 C 740.0 194.0 740.2 194.0 740.2 193.8 C 740.3 193.7 740.1 193.5 740.0 193.5 C 739.8 193.5 739.8 193.5 739.7 193.6 C 739.7 193.8 739.8 193.9 739.9 194.0 Z M 740.9 187.4 C 741.2 187.5 741.5 187.5 741.7 187.8 C 741.9 188.0 742.1 187.7 742.4 187.7 C 742.6 187.9 743.2 188.2 743.3 187.7 C 743.3 187.3 743.3 186.8 742.9 186.7 C 742.6 186.6 742.1 186.4 741.9 186.7 C 741.8 186.9 741.5 187.0 741.4 186.9 C 741.2 186.7 741.0 186.5 740.8 186.7 C 740.7 186.7 740.5 186.8 740.5 186.9 C 740.5 187.1 740.7 187.3 740.9 187.4 Z M 742.0 191.9 C 742.1 192.1 742.3 192.1 742.4 192.1 C 742.7 192.1 742.9 191.9 743.0 191.7 C 743.1 191.4 743.0 191.2 742.9 190.9 C 742.8 190.8 742.6 190.7 742.4 190.8 C 742.1 191.1 741.9 191.5 742.0 191.9 Z M 744.0 189.4 C 744.1 189.2 743.9 189.0 743.8 188.9 C 743.5 188.8 743.0 188.7 742.7 188.9 C 742.6 189.1 742.5 189.3 742.5 189.6 C 742.6 189.7 742.6 189.8 742.7 189.8 C 743.2 189.8 743.8 189.8 744.0 189.4 Z M 744.4 186.0 C 744.4 185.8 744.4 185.6 744.2 185.5 C 744.0 185.5 743.8 185.7 743.7 185.8 C 743.7 186.1 743.6 186.4 743.9 186.5 C 744.2 186.5 744.3 186.2 744.4 186.0 Z M 745.1 192.7 C 745.3 192.7 745.4 192.7 745.5 192.6 C 745.7 192.4 745.8 192.2 745.7 192.0 C 745.6 191.8 745.3 191.7 745.1 191.7 C 744.9 191.8 744.8 191.9 744.8 192.0 C 744.7 192.3 744.8 192.6 745.1 192.7 Z M 737.3 166.7 C 736.9 166.8 736.5 167.0 736.4 167.4 C 736.4 167.6 736.4 167.8 736.6 167.9 C 737.0 168.0 737.4 167.6 737.7 167.4 C 737.8 167.3 737.8 167.1 737.8 167.0 C 737.7 166.8 737.5 166.7 737.3 166.7 Z M 736.1 172.5 C 735.5 172.1 735.0 172.9 734.4 172.6 C 734.3 172.5 734.1 172.5 733.9 172.6 C 733.5 172.9 733.3 173.3 733.5 173.8 C 733.7 174.5 734.3 174.0 734.8 174.0 C 735.2 173.9 735.7 173.8 735.8 173.4 C 735.9 173.1 736.3 172.8 736.1 172.5 Z M 735.8 167.4 C 735.3 167.1 734.7 167.3 734.2 167.4 C 734.0 167.5 733.9 167.7 733.9 167.9 C 733.9 168.0 733.9 168.2 734.1 168.3 C 734.6 168.2 735.1 168.1 735.6 168.1 C 735.7 168.1 735.9 168.0 735.9 167.9 C 735.9 167.7 735.9 167.5 735.8 167.4 Z M 736.6 184.0 C 736.5 184.0 736.3 184.0 736.2 184.1 C 736.1 184.2 736.1 184.4 736.2 184.5 C 736.3 184.7 736.7 184.7 736.8 184.5 C 736.9 184.3 736.8 184.1 736.6 184.0 Z M 765.3 186.6 C 765.6 186.6 766.0 186.5 766.1 186.2 C 766.3 185.9 766.3 185.4 766.1 185.1 C 765.9 184.9 765.7 184.9 765.5 184.9 C 765.1 185.1 765.0 185.6 765.0 186.1 C 765.0 186.3 765.2 186.5 765.3 186.6 Z M 767.8 182.3 C 767.6 182.6 767.6 182.9 767.7 183.1 C 768.0 183.4 768.3 183.5 768.6 183.4 C 768.9 183.2 769.1 183.0 769.3 182.7 C 769.3 182.2 768.8 181.9 768.6 181.5 C 768.6 181.2 768.5 180.8 768.2 180.6 C 768.0 180.6 767.7 180.5 767.4 180.5 C 767.3 180.6 767.1 180.7 767.1 180.8 C 767.0 181.5 768.2 181.6 767.8 182.3 Z M 765.1 179.4 C 765.4 179.5 765.7 179.4 765.9 179.3 C 766.7 179.5 767.5 179.2 768.3 179.5 C 769.0 179.7 768.4 180.6 768.9 180.9 C 769.5 181.1 769.2 180.4 769.5 180.2 C 770.1 180.3 770.5 179.6 771.1 179.5 C 771.4 179.6 771.8 179.8 771.8 180.2 C 771.6 180.7 771.3 181.2 771.1 181.7 C 770.9 181.9 770.8 182.3 770.5 182.3 C 770.4 182.3 770.3 182.2 770.3 182.0 C 770.3 181.9 770.1 181.8 769.9 181.8 C 769.7 181.8 769.7 182.0 769.7 182.2 C 769.6 183.2 770.8 182.6 770.9 183.4 C 771.0 183.6 771.2 184.0 771.0 184.2 C 770.5 184.6 770.2 185.1 770.0 185.5 C 769.7 185.8 768.9 185.7 769.0 186.4 C 769.3 186.8 769.4 187.3 769.3 187.8 C 769.1 188.1 768.8 188.4 768.6 188.8 C 768.4 189.3 767.9 189.1 767.5 189.3 C 767.1 189.4 767.1 189.9 767.0 190.3 C 767.0 190.8 766.4 190.7 766.3 191.1 C 766.1 191.5 766.6 191.7 766.6 192.0 C 766.2 192.3 765.8 192.6 765.5 193.0 C 765.4 193.2 765.3 193.2 765.2 193.1 C 765.0 193.0 765.2 192.7 765.2 192.5 C 765.2 192.2 765.0 191.9 764.7 191.7 C 764.5 191.5 764.1 191.6 763.8 191.7 C 763.2 191.9 763.5 192.6 763.0 192.8 C 762.4 192.8 761.8 192.3 761.2 192.7 C 761.0 192.8 761.0 193.1 761.0 193.3 C 761.4 194.1 762.7 193.3 763.2 194.1 C 763.4 194.4 763.8 194.3 763.9 194.7 C 763.8 194.9 763.6 194.8 763.4 194.9 C 763.2 194.9 763.0 195.1 763.1 195.3 C 763.0 195.7 762.5 195.5 762.3 195.7 C 761.9 196.0 761.9 196.5 761.6 196.8 C 761.4 196.9 761.2 196.7 761.1 196.6 C 760.4 196.4 760.3 197.3 759.9 197.6 C 759.4 197.6 758.9 197.6 758.6 198.0 C 758.1 197.9 757.5 197.7 757.1 198.2 C 756.7 198.3 756.2 198.2 755.8 198.4 C 755.4 198.3 755.3 197.8 754.9 197.7 C 754.0 197.4 754.4 198.5 753.9 198.8 C 753.7 198.9 753.4 198.9 753.1 198.8 C 752.4 198.8 751.7 199.2 751.1 198.8 C 751.0 198.5 751.3 198.3 751.2 198.0 C 751.2 197.9 751.1 197.7 750.9 197.7 C 750.6 197.6 750.3 197.7 750.1 197.9 C 749.7 198.1 749.1 197.9 748.6 198.0 C 748.3 198.0 748.4 198.4 748.2 198.6 C 747.8 198.8 747.5 198.4 747.1 198.2 C 746.6 198.0 746.2 198.4 745.7 198.2 C 744.8 197.8 745.6 197.0 745.5 196.4 C 745.5 196.0 745.4 195.5 745.7 195.3 C 746.0 195.1 746.2 195.5 746.5 195.5 C 746.7 195.5 747.0 195.5 747.1 195.3 C 747.3 195.1 747.4 194.9 747.3 194.6 C 747.1 194.1 746.6 194.1 746.2 194.0 C 745.7 193.8 745.7 192.9 745.0 193.0 C 744.5 193.1 744.5 193.6 744.3 194.0 C 744.2 194.5 744.9 194.8 745.0 195.3 C 745.1 195.7 744.6 195.8 744.4 196.1 C 744.2 196.3 744.3 196.7 743.9 196.8 C 743.5 196.7 743.1 196.8 742.8 196.6 C 742.3 195.8 741.4 195.3 740.6 195.1 C 740.2 194.7 739.6 194.4 739.1 193.9 C 738.7 193.4 738.4 192.7 737.6 192.7 C 737.1 192.4 737.4 191.6 737.1 191.2 C 736.9 190.1 735.6 190.8 735.1 190.1 C 735.3 189.2 734.8 188.5 734.4 187.8 C 734.0 187.1 735.1 187.3 735.4 186.9 C 735.5 186.4 736.0 186.2 736.4 185.8 C 736.5 185.6 736.4 185.4 736.2 185.3 C 735.9 185.3 735.7 185.2 735.4 185.3 C 734.8 185.3 734.5 186.4 733.8 185.9 C 733.4 185.3 733.3 184.6 733.0 184.0 C 733.1 183.8 733.3 183.7 733.4 183.6 C 734.0 183.2 734.3 182.6 734.2 181.9 C 734.1 180.8 732.7 180.9 732.4 180.0 C 732.7 179.5 732.7 178.6 733.5 178.4 C 733.9 178.7 733.5 179.3 733.9 179.6 C 734.1 180.0 734.5 180.0 734.9 180.1 C 735.1 180.2 735.3 180.5 735.6 180.4 C 735.9 180.3 735.9 180.0 735.9 179.8 C 735.9 179.6 736.1 179.4 736.4 179.4 C 737.2 179.3 736.6 180.5 737.3 180.7 C 737.6 180.8 737.9 180.7 738.2 180.6 C 738.4 180.5 738.6 180.3 738.6 180.0 C 738.5 179.8 738.2 179.8 738.1 179.6 C 738.1 179.3 738.5 179.4 738.6 179.2 C 738.7 179.1 738.6 178.9 738.5 178.8 C 738.0 178.7 737.7 178.2 737.2 178.2 C 736.9 178.0 736.5 178.2 736.3 178.3 C 735.5 178.1 734.7 177.9 733.9 178.0 C 733.1 177.7 733.7 176.7 733.7 176.1 C 733.6 176.0 733.4 175.9 733.2 175.9 C 732.6 175.8 732.7 176.9 732.1 176.6 C 731.9 176.1 732.0 175.5 732.3 175.1 C 732.5 174.8 732.3 174.4 732.3 174.0 C 732.6 173.7 732.4 172.9 733.1 172.8 C 733.6 172.6 733.8 172.0 733.9 171.5 C 733.9 171.1 733.5 170.9 733.3 170.8 C 733.0 170.5 732.6 170.8 732.4 170.3 C 732.2 169.7 733.0 169.4 732.8 168.6 C 733.0 167.9 732.3 167.4 732.2 166.7 C 732.3 166.3 732.2 165.9 732.6 165.8 C 732.9 165.7 733.2 165.9 733.6 166.0 C 734.2 166.3 734.7 167.1 735.4 166.9 C 735.6 166.8 735.7 166.6 735.7 166.4 C 735.3 166.1 735.3 165.4 734.7 165.2 C 734.4 165.2 734.0 165.2 733.7 165.1 C 733.7 165.0 733.7 164.8 733.7 164.7 C 733.9 164.2 734.4 164.4 734.9 164.4 C 735.8 164.4 735.5 163.2 736.3 163.1 C 736.4 163.2 736.4 163.3 736.5 163.5 C 736.6 163.7 736.8 163.7 737.0 163.7 C 737.4 163.6 737.4 163.2 737.6 163.0 C 738.1 163.0 738.5 163.3 738.7 163.7 C 739.2 164.0 739.9 163.8 740.0 164.5 C 740.3 165.2 739.4 164.8 739.2 165.1 C 738.9 165.6 739.2 166.1 739.5 166.4 C 739.6 166.5 739.7 166.5 739.8 166.4 C 740.3 165.5 741.4 165.7 742.0 165.1 C 742.2 164.3 741.2 164.8 741.0 164.2 C 740.9 164.1 740.8 163.9 741.0 163.8 C 741.5 163.7 742.0 163.5 742.4 163.1 C 742.8 162.9 743.3 163.0 743.7 163.4 C 743.9 163.7 744.5 163.5 744.5 164.0 C 744.3 164.2 744.0 164.1 743.8 164.2 C 743.2 164.5 743.3 165.2 743.1 165.7 C 743.0 166.1 742.5 165.8 742.2 166.1 C 742.0 166.4 741.9 166.9 741.9 167.4 C 742.1 167.8 742.4 168.1 742.4 168.6 C 742.6 168.9 743.0 168.8 743.3 168.8 C 743.6 168.9 743.7 169.2 743.9 169.2 C 744.4 169.3 744.9 169.3 745.3 169.0 C 745.4 168.7 745.3 168.5 745.2 168.3 C 744.8 167.5 743.9 167.9 743.4 167.6 C 743.3 167.4 743.1 167.3 743.1 167.0 C 743.6 166.6 743.9 167.4 744.5 167.3 C 745.1 167.0 744.2 166.5 744.7 166.2 C 744.8 166.1 745.0 166.1 745.2 166.1 C 745.6 166.2 746.0 165.9 746.2 165.5 C 746.6 165.3 746.8 165.8 747.1 166.0 C 747.4 166.1 747.7 166.1 748.0 165.9 C 748.3 166.0 748.3 166.3 748.3 166.5 C 748.4 166.7 748.6 166.9 748.8 166.9 C 749.3 166.8 749.6 166.3 749.7 165.9 C 750.0 164.5 749.8 162.9 749.9 161.4 C 749.8 160.6 750.1 159.8 749.7 159.1 C 749.5 158.9 749.2 158.9 748.9 158.9 L 748.9 158.8 L 755.0 158.8 L 755.0 158.8 C 755.0 158.9 754.9 158.9 754.8 158.9 C 754.6 159.0 754.4 159.2 754.4 159.4 C 754.4 160.4 754.4 161.5 754.4 162.5 C 754.4 163.6 754.3 164.7 754.5 165.8 C 754.8 166.4 755.5 165.8 755.9 166.2 C 756.0 166.6 756.4 166.9 756.8 167.1 C 757.0 167.4 756.7 167.9 756.8 168.3 C 756.9 168.4 757.0 168.6 757.1 168.6 C 757.4 168.6 757.7 168.6 757.8 168.4 C 757.9 168.1 757.9 167.8 757.8 167.6 C 757.7 167.2 757.0 166.9 757.4 166.5 C 757.9 166.3 758.1 166.9 758.4 167.1 C 758.6 167.2 758.9 167.2 759.0 167.0 C 759.1 166.6 758.9 166.3 758.7 166.1 C 758.3 165.8 757.9 165.8 757.4 165.8 C 757.1 165.7 757.0 165.4 757.0 165.2 C 757.2 164.7 757.8 164.6 758.3 164.5 C 758.7 164.6 758.5 165.1 758.8 165.3 C 759.0 165.3 759.2 165.4 759.3 165.3 C 759.8 164.6 758.7 164.3 758.9 163.6 C 759.0 163.3 759.3 163.3 759.6 163.3 C 760.0 163.5 759.5 163.9 759.7 164.1 C 760.4 164.2 759.9 163.3 760.4 163.3 C 760.7 163.4 760.6 163.6 760.7 163.8 C 761.1 164.2 761.4 165.0 762.1 164.9 C 762.4 164.8 762.2 164.5 762.3 164.3 C 762.5 163.9 762.1 163.3 762.7 163.3 C 763.1 163.5 763.4 164.0 763.4 164.6 C 763.5 164.8 763.6 164.9 763.8 164.9 C 764.5 165.1 764.3 164.3 764.7 164.1 C 765.1 164.0 765.5 164.3 765.8 164.5 C 766.2 164.7 766.4 165.4 767.0 165.2 C 767.2 165.2 767.4 165.0 767.4 164.8 C 767.4 164.6 767.2 164.5 767.0 164.3 C 766.9 164.2 766.9 164.0 767.1 164.0 C 767.3 163.8 767.7 163.8 768.0 163.9 C 768.6 164.1 768.1 165.0 768.8 165.2 C 769.1 165.7 768.3 165.9 768.4 166.4 C 768.4 166.6 768.6 166.6 768.7 166.6 C 769.7 166.6 769.3 165.5 769.5 164.9 C 769.6 164.7 769.7 164.6 769.9 164.6 C 770.5 164.8 771.3 164.8 771.5 165.5 C 771.9 166.1 771.1 166.4 770.9 166.9 C 770.8 167.4 771.2 167.9 771.5 168.3 C 771.6 168.7 771.6 169.1 771.5 169.4 C 771.3 169.8 770.8 169.9 770.6 170.2 C 770.2 170.9 771.1 171.1 771.4 171.5 C 771.7 172.1 771.4 172.8 770.9 173.3 C 770.6 173.8 771.4 174.0 771.6 174.4 C 771.5 174.8 771.1 174.6 770.9 174.9 C 770.5 175.5 771.3 175.9 771.4 176.4 C 771.8 177.2 770.8 177.7 770.9 178.5 C 770.8 178.7 770.5 178.6 770.2 178.7 C 769.7 178.8 769.3 179.4 768.7 179.1 C 768.3 178.9 768.0 178.5 767.5 178.6 C 766.8 178.4 766.4 177.4 765.6 177.6 C 765.0 177.6 764.2 177.2 763.8 177.9 C 763.3 178.9 764.7 178.9 765.1 179.4 " fill="#1A1918"></path></g></g><g><clipPath id="clip-102"><path d="M 732.0 138.0 L 1006.0 138.0 L 1006.0 199.0 L 732.0 199.0 Z M 732.0 138.0 "></path></clipPath><g clip-path="url(#clip-102)"><path d="M 779.8 161.0 L 780.4 161.0 C 780.8 161.0 781.3 161.2 781.3 161.8 C 781.3 162.4 780.7 162.6 780.3 162.6 L 779.8 162.6 L 779.8 161.0 Z M 779.1 163.1 L 780.3 163.1 C 781.3 163.1 782.0 162.8 782.0 161.8 C 782.0 160.7 781.2 160.4 780.4 160.4 L 779.8 160.4 L 779.8 158.5 L 779.1 158.5 L 779.1 163.1 " fill="#1A1918"></path><path d="M 784.8 160.1 C 784.6 160.1 784.5 160.2 784.4 160.2 C 784.0 160.2 783.2 160.1 783.2 159.5 C 783.2 159.2 783.5 159.0 783.8 159.0 C 784.4 159.0 784.8 159.3 784.8 159.8 L 784.8 160.1 Z M 782.9 161.7 C 783.2 161.9 783.6 162.0 784.0 162.0 C 785.0 162.0 785.4 161.5 785.4 160.6 L 785.4 159.2 C 785.4 158.8 785.4 158.6 785.4 158.5 L 784.8 158.5 L 784.8 159.0 L 784.8 159.0 C 784.7 158.8 784.3 158.5 783.8 158.5 C 783.0 158.5 782.5 158.8 782.5 159.5 C 782.5 160.4 783.5 160.6 784.1 160.6 C 784.3 160.6 784.5 160.6 784.8 160.6 C 784.8 161.2 784.5 161.5 783.9 161.5 C 783.6 161.5 783.2 161.4 782.9 161.1 L 782.9 161.7 " fill="#1A1918"></path><path d="M 786.4 161.9 L 787.0 161.9 L 787.0 161.4 L 787.0 161.4 C 787.2 161.7 787.5 162.0 787.9 162.0 C 788.1 162.0 788.2 162.0 788.3 161.9 L 788.3 161.4 C 788.2 161.4 788.1 161.4 788.0 161.4 C 787.4 161.4 787.0 160.9 787.0 160.1 L 787.0 158.5 L 786.4 158.5 L 786.4 161.9 " fill="#1A1918"></path><path d="M 790.8 161.4 L 789.9 161.4 L 789.9 159.6 C 789.9 159.2 790.1 159.0 790.4 159.0 C 790.6 159.0 790.7 159.0 790.8 159.1 L 790.8 158.6 C 790.7 158.5 790.5 158.5 790.3 158.5 C 789.7 158.5 789.3 158.8 789.3 159.4 L 789.3 161.4 L 788.5 161.4 L 788.5 161.9 L 789.3 161.9 L 789.3 162.7 L 789.9 162.9 L 789.9 161.9 L 790.8 161.9 L 790.8 161.4 " fill="#1A1918"></path><path d="M 791.6 161.9 L 792.2 161.9 L 792.2 161.4 L 792.2 161.4 C 792.4 161.8 792.8 162.0 793.3 162.0 C 794.1 162.0 794.5 161.4 794.5 160.5 L 794.5 158.5 L 793.9 158.5 L 793.9 160.3 C 793.9 161.1 793.7 161.4 793.2 161.5 C 792.5 161.5 792.2 160.9 792.2 160.1 L 792.2 158.5 L 791.6 158.5 L 791.6 161.9 " fill="#1A1918"></path><path d="M 797.8 160.5 C 797.8 161.1 797.5 161.5 796.9 161.5 C 796.3 161.5 796.1 161.0 796.0 160.5 L 797.8 160.5 Z M 798.2 158.7 C 797.9 158.6 797.7 158.5 797.1 158.5 C 795.9 158.5 795.4 159.2 795.4 160.3 C 795.4 161.3 796.0 162.0 796.9 162.0 C 798.1 162.0 798.4 161.2 798.4 160.1 L 796.0 160.1 C 796.0 159.4 796.5 159.0 797.1 159.0 C 797.5 159.0 798.0 159.2 798.2 159.3 L 798.2 158.7 " fill="#1A1918"></path><path d="M 799.3 161.9 L 799.8 161.9 L 799.8 161.4 L 799.8 161.4 C 800.0 161.7 800.4 162.0 800.7 162.0 C 800.9 162.0 801.0 162.0 801.1 161.9 L 801.1 161.4 C 801.0 161.4 800.9 161.4 800.8 161.4 C 800.2 161.4 799.9 160.9 799.9 160.1 L 799.9 158.5 L 799.3 158.5 L 799.3 161.9 " fill="#1A1918"></path><path d="M 801.9 161.9 L 802.5 161.9 L 802.5 158.5 L 801.9 158.5 Z M 801.9 163.4 L 802.6 163.4 L 802.6 162.7 L 801.9 162.7 Z M 801.9 163.4 " fill="#1A1918"></path><path d="M 803.7 161.9 L 804.3 161.9 L 804.3 161.4 L 804.3 161.4 C 804.5 161.8 804.9 162.0 805.4 162.0 C 806.2 162.0 806.6 161.4 806.6 160.5 L 806.6 158.5 L 806.0 158.5 L 806.0 160.3 C 806.0 161.1 805.8 161.4 805.3 161.5 C 804.6 161.5 804.3 160.9 804.3 160.1 L 804.3 158.5 L 803.7 158.5 L 803.7 161.9 " fill="#1A1918"></path><path d="M 810.0 160.2 C 810.0 160.9 809.7 161.5 809.1 161.5 C 808.4 161.5 808.1 160.8 808.1 160.2 C 808.1 159.6 808.5 159.0 809.1 159.0 C 809.6 159.0 810.0 159.6 810.0 160.2 Z M 810.7 158.7 C 810.7 157.7 810.1 157.1 808.9 157.1 C 808.6 157.1 808.3 157.1 807.7 157.3 L 807.8 157.9 C 808.3 157.7 808.5 157.6 809.0 157.6 C 809.7 157.6 810.0 158.0 810.0 158.7 L 810.0 159.1 L 810.0 159.1 C 809.8 158.7 809.3 158.5 808.9 158.5 C 807.9 158.5 807.5 159.3 807.5 160.2 C 807.5 161.1 808.0 162.0 809.0 162.0 C 809.6 162.0 809.9 161.8 810.1 161.4 L 810.1 161.4 L 810.1 161.9 L 810.7 161.9 L 810.7 158.7 " fill="#1A1918"></path><path d="M 817.4 158.5 L 816.6 158.5 L 815.8 161.4 L 815.8 161.4 L 814.9 158.5 L 814.2 158.5 L 813.1 161.9 L 813.8 161.9 L 814.6 159.1 L 814.6 159.1 L 815.4 161.9 L 816.2 161.9 L 817.0 159.1 L 817.0 159.1 L 817.8 161.9 L 818.4 161.9 L 817.4 158.5 " fill="#1A1918"></path><path d="M 819.1 161.9 L 819.7 161.9 L 819.7 158.5 L 819.1 158.5 Z M 819.1 163.4 L 819.8 163.4 L 819.8 162.7 L 819.1 162.7 Z M 819.1 163.4 " fill="#1A1918"></path><path d="M 822.7 161.4 L 821.8 161.4 L 821.8 159.6 C 821.8 159.2 822.0 159.0 822.3 159.0 C 822.5 159.0 822.6 159.0 822.7 159.1 L 822.7 158.6 C 822.6 158.5 822.4 158.5 822.2 158.5 C 821.6 158.5 821.2 158.8 821.2 159.4 L 821.2 161.4 L 820.4 161.4 L 820.4 161.9 L 821.2 161.9 L 821.2 162.7 L 821.8 162.9 L 821.8 161.9 L 822.7 161.9 L 822.7 161.4 " fill="#1A1918"></path><path d="M 823.4 163.5 L 824.1 163.5 L 824.1 161.4 L 824.1 161.4 C 824.3 161.8 824.7 162.0 825.2 162.0 C 826.0 162.0 826.4 161.4 826.4 160.5 L 826.4 158.5 L 825.8 158.5 L 825.8 160.3 C 825.8 161.1 825.6 161.4 825.1 161.5 C 824.4 161.5 824.1 160.9 824.1 160.1 L 824.1 158.5 L 823.4 158.5 L 823.4 163.5 " fill="#1A1918"></path><path d="M 851.0 156.2 L 852.2 156.2 L 852.2 152.9 C 852.2 151.9 852.5 151.3 853.4 151.3 C 854.3 151.3 854.6 151.9 854.6 152.9 L 854.6 156.2 L 855.7 156.2 L 855.7 152.6 C 855.7 151.0 854.9 150.4 853.4 150.4 C 851.9 150.4 851.0 151.0 851.0 152.6 L 851.0 156.2 " fill="#1A1918"></path><path d="M 856.9 154.7 L 858.0 154.7 L 858.0 154.2 L 858.0 154.2 C 858.3 154.6 858.8 154.8 859.4 154.8 C 860.4 154.8 860.8 154.1 860.8 153.2 L 860.8 150.5 L 859.7 150.5 L 859.7 152.8 C 859.7 153.3 859.7 154.0 859.0 154.0 C 858.2 154.0 858.0 153.1 858.0 152.6 L 858.0 150.5 L 856.9 150.5 L 856.9 154.7 " fill="#1A1918"></path><path d="M 862.0 154.7 L 863.1 154.7 L 863.1 150.5 L 862.0 150.5 Z M 862.0 156.6 L 863.1 156.6 L 863.1 155.5 L 862.0 155.5 Z M 862.0 156.6 " fill="#1A1918"></path><path d="M 863.7 154.7 L 864.9 154.7 L 866.0 151.6 L 866.0 151.6 L 867.0 154.7 L 868.1 154.7 L 866.6 150.5 L 865.3 150.5 L 863.7 154.7 " fill="#1A1918"></path><path d="M 871.4 153.0 C 871.4 153.6 871.2 154.0 870.5 154.0 C 869.9 154.0 869.6 153.6 869.6 153.0 L 871.4 153.0 Z M 872.2 150.7 C 871.8 150.5 871.3 150.4 870.7 150.4 C 869.3 150.4 868.5 151.2 868.5 152.6 C 868.5 153.8 869.2 154.8 870.5 154.8 C 872.0 154.8 872.5 153.8 872.5 152.3 L 869.6 152.3 C 869.6 151.6 870.1 151.2 870.8 151.2 C 871.3 151.2 871.8 151.4 872.2 151.6 L 872.2 150.7 " fill="#1A1918"></path><path d="M 873.4 154.7 L 874.4 154.7 L 874.4 153.8 L 874.4 153.8 C 874.4 154.2 874.9 154.8 875.5 154.8 C 875.6 154.8 875.7 154.8 875.9 154.8 L 875.9 153.7 C 875.8 153.7 875.6 153.8 875.4 153.8 C 874.5 153.8 874.5 152.7 874.5 152.0 L 874.5 150.5 L 873.4 150.5 L 873.4 154.7 " fill="#1A1918"></path><path d="M 879.1 153.8 C 878.7 154.0 878.5 154.0 878.1 154.0 C 877.8 154.0 877.4 153.9 877.4 153.6 C 877.4 152.9 879.3 153.3 879.3 151.8 C 879.3 150.8 878.5 150.4 877.6 150.4 C 877.1 150.4 876.7 150.5 876.3 150.6 L 876.4 151.5 C 876.7 151.3 877.1 151.2 877.5 151.2 C 877.7 151.2 878.2 151.3 878.2 151.7 C 878.2 152.5 876.3 152.0 876.3 153.5 C 876.3 154.4 877.1 154.8 877.9 154.8 C 878.5 154.8 878.8 154.7 879.1 154.7 L 879.1 153.8 " fill="#1A1918"></path><path d="M 880.2 154.7 L 881.3 154.7 L 881.3 150.5 L 880.2 150.5 Z M 880.2 156.6 L 881.3 156.6 L 881.3 155.5 L 880.2 155.5 Z M 880.2 156.6 " fill="#1A1918"></path><path d="M 882.8 153.9 L 882.0 153.9 L 882.0 154.7 L 882.8 154.7 L 882.8 155.6 L 883.9 155.9 L 883.9 154.7 L 884.9 154.7 L 884.9 153.9 L 883.9 153.9 L 883.9 151.9 C 883.9 151.6 884.0 151.2 884.5 151.2 C 884.7 151.2 884.8 151.3 885.0 151.4 L 885.0 150.5 C 884.8 150.4 884.5 150.4 884.2 150.4 C 883.3 150.4 882.8 150.9 882.8 151.8 L 882.8 153.9 " fill="#1A1918"></path><path d="M 887.4 151.6 L 887.4 151.6 L 888.5 154.7 L 889.6 154.7 L 888.0 150.5 C 887.6 149.6 887.4 148.7 886.2 148.7 C 886.0 148.7 885.7 148.7 885.5 148.8 L 885.5 149.6 C 885.7 149.5 885.8 149.5 886.1 149.5 C 886.5 149.5 886.8 149.8 886.8 150.3 L 885.2 154.7 L 886.4 154.7 L 887.4 151.6 " fill="#1A1918"></path><path d="M 892.6 156.2 L 893.8 156.2 L 893.8 153.9 L 896.1 153.9 L 896.1 156.2 L 897.2 156.2 L 897.2 150.5 L 896.1 150.5 L 896.1 153.0 L 893.8 153.0 L 893.8 150.5 L 892.6 150.5 L 892.6 156.2 " fill="#1A1918"></path><path d="M 900.4 151.2 C 901.2 151.2 901.5 152.0 901.5 152.7 C 901.5 153.4 901.1 154.0 900.4 154.0 C 899.7 154.0 899.3 153.3 899.3 152.7 C 899.3 152.0 899.6 151.2 900.4 151.2 Z M 900.4 154.8 C 901.7 154.8 902.6 154.0 902.6 152.6 C 902.6 151.4 901.8 150.4 900.4 150.4 C 899.0 150.4 898.2 151.4 898.2 152.6 C 898.2 154.0 899.1 154.8 900.4 154.8 " fill="#1A1918"></path><path d="M 906.0 153.8 C 905.7 154.0 905.4 154.0 905.0 154.0 C 904.7 154.0 904.4 153.9 904.4 153.6 C 904.4 152.9 906.3 153.3 906.3 151.8 C 906.3 150.8 905.4 150.4 904.5 150.4 C 904.1 150.4 903.6 150.5 903.2 150.6 L 903.3 151.5 C 903.7 151.3 904.0 151.2 904.4 151.2 C 904.7 151.2 905.1 151.3 905.1 151.7 C 905.1 152.5 903.2 152.0 903.2 153.5 C 903.2 154.4 904.0 154.8 904.9 154.8 C 905.4 154.8 905.7 154.7 906.1 154.7 L 906.0 153.8 " fill="#1A1918"></path><path d="M 908.2 152.6 C 908.2 152.0 908.5 151.2 909.2 151.2 C 909.9 151.2 910.1 152.0 910.1 152.6 C 910.1 153.2 909.9 154.0 909.2 154.0 C 908.5 154.0 908.2 153.2 908.2 152.6 Z M 907.1 154.7 L 908.2 154.7 L 908.2 154.1 L 908.2 154.1 C 908.4 154.5 908.9 154.8 909.5 154.8 C 910.8 154.8 911.3 153.8 911.3 152.6 C 911.3 151.5 910.8 150.4 909.5 150.4 C 909.0 150.4 908.6 150.5 908.2 151.0 L 908.2 151.0 L 908.2 148.8 L 907.1 148.8 L 907.1 154.7 " fill="#1A1918"></path><path d="M 912.2 154.7 L 913.3 154.7 L 913.3 150.5 L 912.2 150.5 Z M 912.2 156.6 L 913.3 156.6 L 913.3 155.5 L 912.2 155.5 Z M 912.2 156.6 " fill="#1A1918"></path><path d="M 914.8 153.9 L 914.0 153.9 L 914.0 154.7 L 914.8 154.7 L 914.8 155.6 L 915.9 155.9 L 915.9 154.7 L 916.9 154.7 L 916.9 153.9 L 915.9 153.9 L 915.9 151.9 C 915.9 151.6 916.0 151.2 916.4 151.2 C 916.6 151.2 916.8 151.3 916.9 151.4 L 916.9 150.5 C 916.7 150.4 916.5 150.4 916.1 150.4 C 915.3 150.4 914.8 150.9 914.8 151.8 L 914.8 153.9 " fill="#1A1918"></path><path d="M 919.1 151.2 C 919.4 151.2 919.7 151.3 919.9 151.6 C 920.1 151.8 920.1 152.1 920.1 152.4 L 919.6 152.4 C 919.1 152.4 918.4 152.4 918.4 151.7 C 918.4 151.4 918.7 151.2 919.1 151.2 Z M 917.8 154.5 C 918.2 154.7 918.8 154.8 919.3 154.8 C 920.6 154.8 921.1 154.3 921.1 153.0 L 921.1 152.5 C 921.1 152.1 921.1 151.7 921.1 151.4 C 921.1 151.1 921.1 150.8 921.2 150.5 L 920.2 150.5 C 920.2 150.7 920.2 151.0 920.1 151.1 L 920.1 151.1 C 919.9 150.7 919.3 150.4 918.8 150.4 C 918.1 150.4 917.3 150.8 917.3 151.7 C 917.3 152.3 917.7 152.7 918.1 152.9 C 918.5 153.1 919.0 153.1 919.5 153.1 L 920.1 153.1 C 920.1 153.8 919.8 154.0 919.1 154.0 C 918.7 154.0 918.2 153.8 917.8 153.6 L 917.8 154.5 " fill="#1A1918"></path><path d="M 922.2 156.7 L 923.3 156.7 L 923.3 150.5 L 922.2 150.5 Z M 922.2 156.7 " fill="#1A1918"></path><path d="M 927.0 153.8 C 926.6 154.0 926.4 154.0 926.0 154.0 C 925.7 154.0 925.4 153.9 925.4 153.6 C 925.4 152.9 927.3 153.3 927.3 151.8 C 927.3 150.8 926.4 150.4 925.5 150.4 C 925.1 150.4 924.6 150.5 924.2 150.6 L 924.3 151.5 C 924.7 151.3 925.0 151.2 925.4 151.2 C 925.7 151.2 926.1 151.3 926.1 151.7 C 926.1 152.5 924.2 152.0 924.2 153.5 C 924.2 154.4 925.0 154.8 925.9 154.8 C 926.4 154.8 926.7 154.7 927.1 154.7 L 927.0 153.8 " fill="#1A1918"></path><path d="M 840.5 138.0 L 840.5 138.0 " fill="#1A1918"></path><path d="M 847.1 161.5 C 847.1 160.7 846.7 160.1 846.2 160.1 C 845.7 160.1 845.2 160.7 845.2 161.5 C 845.2 162.3 845.7 163.0 846.2 163.0 C 846.7 163.0 847.1 162.3 847.1 161.5 " fill="#1A1918"></path><path d="M 845.4 159.1 C 844.9 160.9 844.2 162.5 843.1 163.9 L 841.9 163.9 C 843.0 162.5 843.7 160.9 844.2 159.1 " fill="#1A1918"></path><path d="M 840.5 152.0 L 839.6 152.0 L 839.6 154.1 L 837.7 154.1 L 837.7 153.6 L 837.7 153.6 C 837.6 152.4 836.9 151.9 835.7 151.9 C 834.5 151.9 833.8 152.4 833.8 153.7 L 833.8 156.8 L 834.7 156.8 L 834.7 154.0 C 834.7 153.2 835.0 152.7 835.7 152.7 C 836.5 152.7 836.7 153.2 836.7 154.0 L 836.7 156.8 L 837.7 156.8 L 837.7 154.8 L 839.6 154.8 L 839.6 156.8 L 840.5 156.8 L 840.5 152.0 Z M 845.4 159.1 C 845.7 157.9 845.9 156.5 845.9 155.1 C 845.9 151.5 844.6 148.2 842.6 145.9 L 841.4 145.9 C 843.5 148.2 844.8 151.5 844.8 155.1 C 844.8 156.5 844.6 157.9 844.2 159.1 L 832.0 159.1 C 832.0 157.5 832.2 153.7 833.4 149.6 L 840.5 149.6 L 840.5 147.7 L 834.1 147.7 C 834.3 147.1 834.6 146.5 834.9 145.8 L 840.5 145.8 L 840.5 143.9 L 835.8 143.9 C 836.2 143.3 836.6 142.6 837.0 142.0 L 840.5 142.0 L 840.5 140.1 L 838.5 140.1 C 839.1 139.4 839.8 138.8 840.5 138.2 C 848.1 144.6 849.0 155.8 849.0 159.1 L 845.4 159.1 " fill="#1A1918"></path></g></g></g></svg>